<?xml version="1.0" encoding="utf-8"?>
<!-- Generator: Adobe Illustrator 15.1.0, SVG Export Plug-In . SVG Version: 6.00 Build 0)  -->
<!DOCTYPE svg PUBLIC "-//W3C//DTD SVG 1.1//EN" "http://www.w3.org/Graphics/SVG/1.1/DTD/svg11.dtd">
<svg version="1.1" xmlns="http://www.w3.org/2000/svg" xmlns:xlink="http://www.w3.org/1999/xlink" x="0px" y="0px" width="2300px"
	 height="1610px" viewBox="0 0 2300 1610" enable-background="new 0 0 2300 1610" xml:space="preserve">
<g id="Camada_6">
	<rect id="branco" fill="#FFFFFF" width="2300" height="1610"/>
	<rect id="verde" fill="#006B3E" width="2300" height="536.667"/>
	<rect id="azul" y="1073.333" fill="#0098DA" width="2300" height="536.667"/>
	<path id="rightwave" fill="#EA2432" d="M2240,689.671c-82.321,0-139.045,40.363-184.623,72.79
		c-38.389,27.314-63.423,44.058-93.075,44.058c-29.653,0-54.688-16.743-93.076-44.058c-45.578-32.427-102.301-72.79-184.623-72.79
		c-41.229,0-75.989,10.164-106.188,24.351c6.202,29.351,9.473,59.782,9.473,90.979c0,12.059-0.495,24.001-1.452,35.814
		c30.938-21.164,60.407-37.333,98.167-37.333c45.965,0,79.642,23.96,118.64,51.71c42.905,30.533,91.542,65.139,159.06,65.139
		c67.517,0,116.153-34.605,159.06-65.139c38.998-27.75,72.674-51.71,118.639-51.71c22.207,0,41.543,5.603,60,14.514V697.195
		C2281.601,692.475,2261.689,689.671,2240,689.671z"/>
	<path id="leftwave" fill="#EA2432" d="M712.112,805c0-10.138,0.353-20.194,1.031-30.16c-28.962,19.903-50.582,31.678-75.445,31.678
		c-29.652,0-54.687-16.743-93.075-44.058c-45.578-32.427-102.302-72.79-184.623-72.79c-82.324,0-139.045,40.363-184.623,72.79
		c-38.387,27.314-63.42,44.058-93.076,44.058c-26.787,0-49.807-13.665-82.301-36.439v132.109
		c24.306,10.841,51.31,18.143,82.301,18.143c67.521,0,116.152-34.605,159.061-65.139c38.996-27.75,72.674-51.71,118.639-51.71
		c45.965,0,79.641,23.96,118.639,51.71c42.906,30.533,91.543,65.139,159.06,65.139c32.13,0,59.979-7.845,84.974-19.351
		C715.765,870.091,712.112,837.973,712.112,805z"/>
	<circle id="circulo" fill="#FFFFFF" cx="1150" cy="805" r="437.888"/>
</g>
<g id="bracos">
	<path fill="#008400" stroke="#000000" stroke-width="2" stroke-miterlimit="10" d="M1206.022,1094c-1.9,9-10.338,9.75-16.494,9.75
		c0,0-28.069-13.625-41.656-27.25h18.25C1166.122,1076.5,1186.923,1088.5,1206.022,1094z"/>
	<path fill="none" stroke="#000000" stroke-width="2" stroke-miterlimit="10" d="M1199.622,1095c-4.5,0.25-10.094,5.25-10.094,5.25"
		/>
	<path fill="#008400" stroke="#000000" stroke-width="2" stroke-miterlimit="10" d="M1093.978,1094c1.9,9,10.339,9.75,16.495,9.75
		c0,0,28.069-13.625,41.656-27.25h-18.25C1133.878,1076.5,1113.077,1088.5,1093.978,1094z"/>
	<path fill="none" stroke="#000000" stroke-width="2" stroke-miterlimit="10" d="M1100.378,1095c4.5,0.25,10.094,5.25,10.094,5.25"
		/>
	<path fill="#006B3E" stroke="#000000" stroke-width="2" stroke-miterlimit="10" d="M1007.789,1015
		c-6.258-11.227-27.981-25.995-40.616-13.867c-4.527,4.346-5.273,14.76-7.384,26.367c0,0-8.888-20.112,1.779-33.921
		c2.883-3.732,9.976-3.297,15.721-6.329c0,0-19.25-12.75-26-6c-1.532,1.532-4.807,2.566-5.861,4.796
		c-3.593,7.594-2.639,19.454-2.639,19.454s-8.511-14.276-3.576-25.723c2.037-4.727,8.854-8.971,15.576-11.527
		c0,0-17.25-10.25-19.75-5.75s-4.5,19.5-4.5,19.5s-2.75-23.75,5.25-24.5s19.5,5,19.5,5s-22-10.5-43.25-9.25c0,0,27-2.5,31.75-4.75
		c0,0-25.75-0.75-31.75-3.25l17.75-5c0,0-15.25-3.5-17.75-8.25c0,0,10.75-1.5,12.25-3.5s-18-4.75-21-7l12.5-2
		c0,0-16.25-7.75-20.25-4.5s-6,3.75-6,3.75s1.5-7.5,11-7.75s15,1,15,1l-22.75-8.5l21,1.25l-16.5-8h14.5l-8-3l8.25-3.25l-14.75-2.75
		l18-2.833l-16.25-3l15.5-1l-17-1.667l16-2.75l-12.5-1.5l10.5-3l-13.75-2l16.5-3l-18.5-1l7.5-3.5l-5.75-3l8-2.916l-8-4.584
		l12.75-1.25l-9-5.5l5.625,0.75l-3.25-4.25l15.375-0.875l-16.875-9.75l11.5-2.5l-14.25-5L913.289,822l-11.875-3.875l2.875-2.5
		l-4.25-3.875l6.5-2.125l-12.625-7.125l12,0.875l-16.375-10.25l17.25,1l-12.25-7.25l7.875-4.25l-8.875-4.5l8.375,0.75l-8.75-5.5
		l9.125,1l-6.875-4.75l7.125-2.375l-8.25-3.875l7.25-1.25l-7.25-2.875l7.625-1.25l-8.125-2.25l8.125-2.125l-9.25-2.125l11.25-1
		l-12.375-2.25l12.875-3.125l-14.875-5.625l9-3.5l-5.125-4.75l7.5-1.375l-3.125-3.5h5.5L900.164,723l6.75,1.125l-10.875-6.375
		l13.625,2.625l-11.875-11.625l11.25,1.75l-10.875-8.625l13.625,2L896.164,693.5l15.125,2.875l-14.625-7.75l15,1.5l-15.125-10.75
		l17.375,2.375L902.039,672l13.875,3.375l-9.625-8.875l11.25,1.375l-10.875-9.625l12.75,3l-10.875-10.539c0,0,9.75,1.789,9.75,2.164
		s-8-11.115-7.375-10.808s11.875,4.433,11.875,4.433l-4.25-10.196l7,6.696l-1.75-8.5l7.125,5.875L925.539,628l14.75,14.067l5-27.317
		l1.25,28.25l8.625-8l-4.75,12.527l5.75-4.277l-5.75,12.125l11.75-12.5l-8.875,17.875l13.125-10.722L957.17,663l12.494-7.75
		l-7.375,8.5l7.625-0.875l-13.375,8.5l15.75-2.75l-10.375,5.875h10l-9.875,4.125l13.872-1.125l-9.747,8h9.25l-10.75,5l7.25,1
		l-6.75,3.625l6.25,2.5l-6.25,2.75l7.25,2c0,0-10.375,4.75-8.25,6.875s8.375-2.75,8.375-2.75l-4,8.625l7.375-3.625l-8.125,8.75
		l9-4.75l-9.75,13.625l7.125,4.125l-6.5,3.25h4.875l-4.75,1.625l7,1.25l-6.5,3.625l10.75,2.125l-14.625,3l13.875,1.375
		l-15.625,7.125l11.125-0.5l-5.375,5.25l9.5-1.25l-10.5,6.375l9.25-0.625L966.414,771l3.875,1.625l-7.125,3l7.875-0.125l-8.125,8
		l10.125-3.5l-7.125,13.125l13-5.125l-12.625,14.375l13.5-5l-13,12.625l7.5,0.25l-9.375,3.625l14.125-0.25l-10.375,5.75l4.125,0.375
		c0,0-12.75,15.875-8.125,17.75s13.375-13.375,13.375-13.375L970.289,857l8.875-5.5l-2.125,8.25l6.25-3.166l-9.375,20.916
		l9.625-3.75l-3.5,3.125l5-1.125l-7.5,12.375l10.75-3.375l-10.75,15.875l13.625-1.5l-10.125,14.292h12.375L988.539,929l8.75-4.25
		l-7,12.875l7,0.875l-2.875,7.875l6-1.625l-5.5,8.875l7.625-1.875l-9.75,5.625l9.625,0.5l-7.875,1.25l6.25,1.875l-3.5,5.125
		l11.25-2.125l-8.63,10.375l14.38-4.125l-12.5,11.75l12.5-6.25l-7.875,10.75l10.875-4.375c0,0-6.209,6.342-7.423,11.936
		c-1.479,6.818-0.48,12.496,6.798,17.439"/>
	<path fill="#006B3E" stroke="#000000" stroke-width="2" stroke-miterlimit="10" d="M1292.211,1015
		c6.258-11.227,27.981-25.995,40.616-13.867c4.528,4.346,5.274,14.76,7.384,26.367c0,0,8.888-20.112-1.779-33.921
		c-2.883-3.732-9.975-3.297-15.721-6.329c0,0,19.25-12.75,26-6c1.532,1.532,4.807,2.566,5.861,4.796
		c3.594,7.594,2.639,19.454,2.639,19.454s8.511-14.276,3.576-25.723c-2.037-4.727-8.854-8.971-15.576-11.527
		c0,0,17.25-10.25,19.75-5.75s4.5,19.5,4.5,19.5s2.75-23.75-5.25-24.5s-19.5,5-19.5,5s22-10.5,43.25-9.25c0,0-27-2.5-31.75-4.75
		c0,0,25.75-0.75,31.75-3.25l-17.75-5c0,0,15.25-3.5,17.75-8.25c0,0-10.75-1.5-12.25-3.5s18-4.75,21-7l-12.5-2
		c0,0,16.25-7.75,20.25-4.5s6,3.75,6,3.75s-1.5-7.5-11-7.75s-15,1-15,1l22.75-8.5l-21,1.25l16.5-8h-14.5l8-3l-8.25-3.25l14.75-2.75
		l-18-2.833l16.25-3l-15.5-1l17-1.667l-16-2.75l12.5-1.5l-10.5-3l13.75-2l-16.5-3l18.5-1l-7.5-3.5l5.75-3l-8-2.916l8-4.584
		l-12.75-1.25l9-5.5l-5.625,0.75l3.25-4.25l-15.375-0.875l16.875-9.75l-11.5-2.5l14.25-5L1386.711,822l11.875-3.875l-2.875-2.5
		l4.25-3.875l-6.5-2.125l12.625-7.125l-12,0.875l16.375-10.25l-17.25,1l12.25-7.25l-7.875-4.25l8.875-4.5l-8.375,0.75l8.75-5.5
		l-9.125,1l6.875-4.75l-7.125-2.375l8.25-3.875l-7.25-1.25l7.25-2.875l-7.625-1.25l8.125-2.25l-8.125-2.125l9.25-2.125l-11.25-1
		l12.375-2.25l-12.875-3.125l14.875-5.625l-9-3.5l5.125-4.75l-7.5-1.375l3.125-3.5h-5.5l3.125-3.375l-6.75,1.125l10.875-6.375
		l-13.625,2.625l11.875-11.625l-11.25,1.75l10.875-8.625l-13.625,2l15.625-10.375l-15.125,2.875l14.625-7.75l-15,1.5l15.125-10.75
		l-17.375,2.375l11.875-9.75l-13.875,3.375l9.625-8.875l-11.25,1.375l10.875-9.625l-12.75,3l10.875-10.539
		c0,0-9.75,1.789-9.75,2.164s8-11.115,7.375-10.808s-11.875,4.433-11.875,4.433l4.25-10.196l-7,6.696l1.75-8.5l-7.125,5.875
		l5.375-12.375l-14.75,14.067l-5-27.317l-1.25,28.25l-8.625-8l4.75,12.527l-5.75-4.277l5.75,12.125l-11.75-12.5l8.875,17.875
		l-13.125-10.722L1342.83,663l-12.494-7.75l7.375,8.5l-7.625-0.875l13.375,8.5l-15.75-2.75l10.375,5.875h-10l9.875,4.125
		l-13.872-1.125l9.747,8h-9.25l10.75,5l-7.25,1l6.75,3.625l-6.25,2.5l6.25,2.75l-7.25,2c0,0,10.375,4.75,8.25,6.875
		s-8.375-2.75-8.375-2.75l4,8.625l-7.375-3.625l8.125,8.75l-9-4.75l9.75,13.625l-7.125,4.125l6.5,3.25h-4.875l4.75,1.625l-7,1.25
		l6.5,3.625l-10.75,2.125l14.625,3l-13.875,1.375l15.625,7.125l-11.125-0.5l5.375,5.25l-9.5-1.25l10.5,6.375l-9.25-0.625
		l10.25,5.125l-3.875,1.625l7.125,3l-7.875-0.125l8.125,8l-10.125-3.5l7.125,13.125l-13-5.125l12.625,14.375l-13.5-5l13,12.625
		l-7.5,0.25l9.375,3.625l-14.125-0.25l10.375,5.75l-4.125,0.375c0,0,12.75,15.875,8.125,17.75s-13.375-13.375-13.375-13.375
		l7.75,32.875l-8.875-5.5l2.125,8.25l-6.25-3.166l9.375,20.916l-9.625-3.75l3.5,3.125l-5-1.125l7.5,12.375l-10.75-3.375
		l10.75,15.875l-13.625-1.5l10.125,14.292h-12.375l4.875,15.583l-8.75-4.25l7,12.875l-7,0.875l2.875,7.875l-6-1.625l5.5,8.875
		l-7.625-1.875l9.75,5.625l-9.625,0.5l7.875,1.25l-6.25,1.875l3.5,5.125l-11.25-2.125l8.63,10.375l-14.38-4.125l12.5,11.75
		l-12.5-6.25l7.875,10.75l-10.875-4.375c0,0,6.209,6.342,7.424,11.936c1.479,6.818,0.48,12.496-6.799,17.439"/>
</g>
<g id="faixa">
	<path fill="#0098DA" stroke="#000000" stroke-width="2" stroke-miterlimit="10" d="M1150,1080c-77.5,0-114.5-35-114.5-35
		c4.75,5.25-0.25,20.75-13.188,14.5c-19.344-9.345-45.563-8.875-45.563-8.875c1.813-17,12.5-19.375,16.75-20.563s0.25-1.063,2-4.813
		s27.25-43.25,31.75-39s43,56.25,122.75,56.25s118.25-52,122.75-56.25s30,35.25,31.75,39s-2.25,3.625,2,4.813
		s14.938,3.563,16.75,20.563c0,0-26.219-0.47-45.563,8.875c-12.938,6.25-17.938-9.25-13.188-14.5C1264.5,1045,1227.5,1080,1150,1080
		z"/>
	<g>
		<path fill="#FFFFFF" d="M1030.914,1035.84l13.147-21.604l4.067,2.476l2.23,19.254l17.901-7.002l4.026,2.45l-13.147,21.604
			l-4.66-2.836l8.122-13.347c0.157-0.259,0.373-0.575,0.648-0.95c0.274-0.374,0.588-0.79,0.941-1.247
			c-0.613,0.393-1.131,0.707-1.555,0.944c-0.424,0.236-0.788,0.421-1.093,0.553l-14.682,5.854l-1.001-0.609l-1.542-15.782
			c-0.051-0.592-0.073-1.132-0.064-1.622c0.008-0.489,0.048-0.945,0.12-1.369c-0.233,0.475-0.451,0.901-0.654,1.282
			c-0.204,0.38-0.409,0.741-0.616,1.081l-8.122,13.347L1030.914,1035.84z"/>
		<path fill="#FFFFFF" d="M1075.355,1060.319l21.04-20.039l5.426,1.647l6.523,28.412l-6.318-1.919l-1.301-6.172l-15.338-4.659
			l-4.422,4.434L1075.355,1060.319z M1089.118,1053.948l10.6,3.219l-2.229-11.429L1089.118,1053.948z"/>
		<path fill="#FFFFFF" d="M1147.745,1053.4l-15.836-0.914l-0.923,15.979l15.836,0.915l0.313-5.423l5.805,1.558l-0.172,2.986
			c-0.134,2.309-0.659,3.856-1.575,4.643c-0.916,0.785-2.592,1.108-5.028,0.967l-15.072-0.87c-2.452-0.142-4.084-0.655-4.896-1.541
			s-1.151-2.483-1.018-4.792l0.769-13.305c0.132-2.293,0.653-3.837,1.562-4.631s2.589-1.121,5.042-0.979l15.072,0.871
			c2.437,0.141,4.064,0.658,4.883,1.553c0.819,0.894,1.162,2.487,1.03,4.78l-0.139,2.389l-5.929,0.592L1147.745,1053.4z"/>
		<path fill="#FFFFFF" d="M1218.791,1061.798l-9.004-23.633l5.5-2.096l9.004,23.633L1218.791,1061.798z"/>
		<path fill="#FFFFFF" d="M1233.833,1034.905c-1.219-1.946-1.688-3.507-1.406-4.681c0.281-1.173,1.463-2.412,3.546-3.715
			l15.777-9.877c2.082-1.303,3.713-1.825,4.892-1.565s2.377,1.362,3.596,3.31l7.071,11.296c1.227,1.961,1.697,3.524,1.412,4.691
			c-0.286,1.166-1.47,2.401-3.552,3.705l-15.778,9.876c-2.082,1.304-3.71,1.829-4.885,1.576c-1.174-0.253-2.375-1.359-3.603-3.32
			L1233.833,1034.905z M1246.54,1044.113l16.447-10.296l-8.493-13.567l-16.447,10.296L1246.54,1044.113z M1240.458,1022.166
			l-0.255-4.606l4.502-2.818l-1.59,5.762L1240.458,1022.166z"/>
	</g>
	<path fill="none" stroke="#000000" stroke-width="2" stroke-miterlimit="10" d="M1035.5,1045c-6-5-27.75-17.75-35.5-17.75"/>
	<path fill="none" stroke="#000000" stroke-width="2" stroke-miterlimit="10" d="M1264.5,1045c6-5,27.75-17.75,35.5-17.75"/>
	<polygon fill="#FFFFFF" points="1179.383,1067.104 1178.239,1060.94 1198.051,1057.265 1197.203,1053.042 1177.454,1056.706 
		1176.425,1051.153 1196.092,1047.507 1195.306,1043.271 1169.853,1047.992 1174.464,1072.858 1200.153,1068.094 1199.284,1063.412 
			"/>
</g>
<g id="escudo">
	<path fill="#353535" d="M1150,644.667c-82.516,0-147.25,27.052-147.25,27.052v6.948h294.5v-6.948
		C1297.25,671.719,1232.516,644.667,1150,644.667z"/>
	<g>
		<path fill="#006B3E" stroke="#000000" stroke-width="2" stroke-miterlimit="10" d="M1003.5,885.75
			c0,80.909,65.59,146.5,146.5,146.5c80.91,0,146.5-65.591,146.5-146.5V676.054h-293V885.75z"/>
		<path fill="#FFFFFF" stroke="#000000" stroke-width="2" stroke-miterlimit="10" d="M1003.5,800.083v85.667
			c0,80.909,65.59,146.5,146.5,146.5c80.91,0,146.5-65.591,146.5-146.5v-85.667H1003.5z"/>
		<path fill="#0098DA" stroke="#000000" stroke-width="2" stroke-miterlimit="10" d="M1006.121,913.417
			c12.937,67.68,72.43,118.833,143.879,118.833c71.45,0,130.942-51.153,143.88-118.833H1006.121z"/>
	</g>
	<path fill="#EA2432" stroke="#000000" stroke-width="2" stroke-miterlimit="10" d="M1296.5,866.501v-29.337
		c-6.903-3.408-14.904-5.914-24.5-5.914c-18.083,0-30.543,8.866-40.555,15.989c-8.433,6-13.932,9.678-20.445,9.678
		s-12.013-3.678-20.445-9.678c-10.012-7.123-22.472-15.989-40.555-15.989c-18.083,0-30.543,8.866-40.555,15.989
		c-8.432,6-13.931,9.678-20.445,9.678s-12.013-3.678-20.445-9.678c-10.012-7.123-22.471-15.989-40.555-15.989
		c-9.596,0-17.597,2.506-24.5,5.914v29.337c7.921-5.612,15.021-10.251,24.5-10.251c10.097,0,17.495,5.264,26.061,11.359
		c9.425,6.706,20.108,14.308,34.939,14.308s25.514-7.602,34.939-14.308c8.566-6.096,15.964-11.359,26.061-11.359
		s17.494,5.264,26.061,11.359c9.425,6.706,20.108,14.308,34.939,14.308s25.515-7.602,34.939-14.308
		c8.566-6.096,15.964-11.359,26.061-11.359C1281.479,856.25,1288.579,860.889,1296.5,866.501z"/>
	<path fill="#FFFFFF" stroke="#000000" stroke-width="1.5" stroke-miterlimit="10" d="M1214.166,779.75v-7.333h-5.666v-2.833h-5.833
		v2.833h-8.834v-2.833H1184v2.833h-9.667v-10c23.604,0,45.34,0,46.167,0c1.833,0,1.5-2.333,0-2.333s-99.333,3.833-81.333-64.833
		c-36.167,6.167-46,34.167-46,46.167v21h-6.833v7.167c0,0-6-1.333-12.5-1.333l5,11.167c0,0,120,0,124.5,0s3.667,5.833,7.5,5.833
		c2.648,0,3.228,0,3.333,0v-3h12.001v-2.5H1214.166z M1169.833,772.417h-11v-4.5h11V772.417z M1114.167,762.417
		c0,0,28.274,0,55.667,0v2.5h-14v7.5h-41.667V762.417z"/>
	<path fill="#FFFFFF" stroke="#000000" stroke-width="1.5" stroke-miterlimit="10" d="M1204.167,976.25
		c-65.167,0-66.167-54-66.167-54c-42.936,42.935-39.246,63.14-23.44,80.001c-2.688,0-4.53,0-5.227,0c-5.667,0-13.5-6.334-13.5-6.334
		s1,15.5,13.333,15.5c12.334,0,90.167,0,90.167,0v-9.166c0,0-49.855,0-74.219,0L1204.167,976.25z"/>
</g>
<g id="coroa">
	<g>
		<polygon fill="#FFE000" stroke="#000000" stroke-width="2" stroke-miterlimit="10" points="1107.525,544.177 1108.483,554.131 
			1096.605,555.275 1095.646,545.321 1075.835,548.233 1082.433,616.75 1134.126,611.772 1127.529,543.256 		"/>
		<line stroke="#000000" stroke-miterlimit="10" x1="1076.746" y1="557.689" x2="1128.203" y2="552.735"/>
		<line stroke="#000000" stroke-miterlimit="10" x1="1077.704" y1="567.644" x2="1129.161" y2="562.688"/>
		<line stroke="#000000" stroke-miterlimit="10" x1="1078.663" y1="577.597" x2="1130.12" y2="572.643"/>
		<line stroke="#000000" stroke-miterlimit="10" x1="1079.621" y1="587.551" x2="1131.078" y2="582.597"/>
		<line stroke="#000000" stroke-miterlimit="10" x1="1080.58" y1="597.505" x2="1132.037" y2="592.55"/>
		<line stroke="#000000" stroke-miterlimit="10" x1="1081.538" y1="607.459" x2="1132.995" y2="602.504"/>
		<line fill="none" stroke="#000000" stroke-miterlimit="10" x1="1102.592" y1="555.201" x2="1103.551" y2="565.155"/>
		<line fill="none" stroke="#000000" stroke-miterlimit="10" x1="1110.021" y1="564.532" x2="1110.979" y2="574.486"/>
		<line fill="none" stroke="#000000" stroke-miterlimit="10" x1="1104.509" y1="575.108" x2="1105.468" y2="585.063"/>
		<line fill="none" stroke="#000000" stroke-miterlimit="10" x1="1111.938" y1="584.439" x2="1112.896" y2="594.394"/>
		<line fill="none" stroke="#000000" stroke-miterlimit="10" x1="1106.426" y1="595.017" x2="1107.385" y2="604.971"/>
		<line fill="none" stroke="#000000" stroke-miterlimit="10" x1="1113.854" y1="604.348" x2="1114.75" y2="613.638"/>
		<line fill="none" stroke="#000000" stroke-miterlimit="10" x1="1089.652" y1="556.447" x2="1090.611" y2="566.4"/>
		<line fill="none" stroke="#000000" stroke-miterlimit="10" x1="1097.081" y1="565.778" x2="1098.039" y2="575.731"/>
		<line fill="none" stroke="#000000" stroke-miterlimit="10" x1="1091.569" y1="576.354" x2="1092.528" y2="586.309"/>
		<line fill="none" stroke="#000000" stroke-miterlimit="10" x1="1098.998" y1="585.686" x2="1099.956" y2="595.64"/>
		<line fill="none" stroke="#000000" stroke-miterlimit="10" x1="1093.486" y1="596.263" x2="1094.444" y2="606.216"/>
		<line fill="none" stroke="#000000" stroke-miterlimit="10" x1="1100.915" y1="605.593" x2="1101.809" y2="614.884"/>
		<line fill="none" stroke="#000000" stroke-miterlimit="10" x1="1115.533" y1="553.955" x2="1116.491" y2="563.909"/>
		<line fill="none" stroke="#000000" stroke-miterlimit="10" x1="1122.961" y1="563.286" x2="1123.919" y2="573.24"/>
		<line fill="none" stroke="#000000" stroke-miterlimit="10" x1="1117.449" y1="573.863" x2="1118.408" y2="583.816"/>
		<line fill="none" stroke="#000000" stroke-miterlimit="10" x1="1124.878" y1="583.193" x2="1125.836" y2="593.147"/>
		<line fill="none" stroke="#000000" stroke-miterlimit="10" x1="1119.366" y1="593.771" x2="1120.325" y2="603.725"/>
		<line fill="none" stroke="#000000" stroke-miterlimit="10" x1="1126.795" y1="603.102" x2="1127.689" y2="612.392"/>
		<line fill="none" stroke="#000000" stroke-miterlimit="10" x1="1084.141" y1="567.023" x2="1085.099" y2="576.978"/>
		<line fill="none" stroke="#000000" stroke-miterlimit="10" x1="1086.058" y1="586.932" x2="1087.016" y2="596.886"/>
		<line fill="none" stroke="#000000" stroke-miterlimit="10" x1="1087.975" y1="606.839" x2="1088.869" y2="616.13"/>
	</g>
	<g>
		<polygon fill="#FFE000" stroke="#000000" stroke-width="2" stroke-miterlimit="10" points="1012.456,560.277 1015.296,569.865 
			1003.854,573.254 1001.014,563.666 982.123,570.305 1001.672,636.304 1051.466,621.555 1031.917,555.556 		"/>
		<line stroke="#000000" stroke-miterlimit="10" x1="984.82" y1="579.414" x2="1034.387" y2="564.732"/>
		<line stroke="#000000" stroke-miterlimit="10" x1="987.661" y1="589.002" x2="1037.228" y2="574.319"/>
		<line stroke="#000000" stroke-miterlimit="10" x1="990.501" y1="598.59" x2="1040.067" y2="583.908"/>
		<line stroke="#000000" stroke-miterlimit="10" x1="993.341" y1="608.178" x2="1042.907" y2="593.496"/>
		<line stroke="#000000" stroke-miterlimit="10" x1="996.181" y1="617.767" x2="1045.748" y2="603.084"/>
		<line stroke="#000000" stroke-miterlimit="10" x1="999.021" y1="627.355" x2="1048.588" y2="612.672"/>
		<line fill="none" stroke="#000000" stroke-miterlimit="10" x1="1009.717" y1="572.039" x2="1012.558" y2="581.627"/>
		<line fill="none" stroke="#000000" stroke-miterlimit="10" x1="1018.79" y1="579.781" x2="1021.63" y2="589.369"/>
		<line fill="none" stroke="#000000" stroke-miterlimit="10" x1="1015.398" y1="591.215" x2="1018.238" y2="600.804"/>
		<line fill="none" stroke="#000000" stroke-miterlimit="10" x1="1024.471" y1="598.958" x2="1027.311" y2="608.546"/>
		<line fill="none" stroke="#000000" stroke-miterlimit="10" x1="1021.078" y1="610.392" x2="1023.918" y2="619.98"/>
		<line fill="none" stroke="#000000" stroke-miterlimit="10" x1="1030.151" y1="618.134" x2="1032.801" y2="627.083"/>
		<line fill="none" stroke="#000000" stroke-miterlimit="10" x1="997.253" y1="575.731" x2="1000.093" y2="585.319"/>
		<line fill="none" stroke="#000000" stroke-miterlimit="10" x1="1006.325" y1="583.474" x2="1009.165" y2="593.062"/>
		<line fill="none" stroke="#000000" stroke-miterlimit="10" x1="1002.934" y1="594.908" x2="1005.773" y2="604.496"/>
		<line fill="none" stroke="#000000" stroke-miterlimit="10" x1="1012.005" y1="602.65" x2="1014.846" y2="612.238"/>
		<line fill="none" stroke="#000000" stroke-miterlimit="10" x1="1008.613" y1="614.084" x2="1011.454" y2="623.672"/>
		<line fill="none" stroke="#000000" stroke-miterlimit="10" x1="1017.686" y1="621.826" x2="1020.337" y2="630.775"/>
		<line fill="none" stroke="#000000" stroke-miterlimit="10" x1="1022.183" y1="568.347" x2="1025.023" y2="577.935"/>
		<line fill="none" stroke="#000000" stroke-miterlimit="10" x1="1031.254" y1="576.089" x2="1034.095" y2="585.677"/>
		<line fill="none" stroke="#000000" stroke-miterlimit="10" x1="1027.862" y1="587.523" x2="1030.702" y2="597.111"/>
		<line fill="none" stroke="#000000" stroke-miterlimit="10" x1="1036.935" y1="595.265" x2="1039.775" y2="604.854"/>
		<line fill="none" stroke="#000000" stroke-miterlimit="10" x1="1033.542" y1="606.7" x2="1036.383" y2="616.288"/>
		<line fill="none" stroke="#000000" stroke-miterlimit="10" x1="1042.616" y1="614.442" x2="1045.266" y2="623.391"/>
		<line fill="none" stroke="#000000" stroke-miterlimit="10" x1="993.861" y1="587.166" x2="996.701" y2="596.754"/>
		<line fill="none" stroke="#000000" stroke-miterlimit="10" x1="999.542" y1="606.342" x2="1002.381" y2="615.931"/>
		<line fill="none" stroke="#000000" stroke-miterlimit="10" x1="1005.221" y1="625.519" x2="1007.873" y2="634.468"/>
	</g>
	<g>
		<polygon fill="#FFE000" stroke="#000000" stroke-width="2" stroke-miterlimit="10" points="990.351,650.028 1023.42,636.667 
			986.159,565.798 989.531,556.347 978.966,535.09 965.706,540.447 971.164,552.263 962.201,555.885 955.371,544.623 
			948.832,547.265 		"/>
		
			<rect x="975.474" y="574.037" transform="matrix(-0.9272 0.3746 -0.3746 -0.9272 2108.3882 757.6675)" width="10.167" height="19.417"/>
		<path fill="none" stroke="#000000" stroke-miterlimit="10" d="M1010.285,641.974c-10.177-25.188-31.194-48.514-41.162-44.486"/>
		<line fill="none" stroke="#000000" stroke-miterlimit="10" x1="984.957" y1="547.23" x2="953.889" y2="559.782"/>
		<line fill="none" stroke="#000000" stroke-miterlimit="10" x1="986.159" y1="565.798" x2="960.507" y2="576.163"/>
		<line fill="none" stroke="#000000" stroke-miterlimit="10" x1="989.531" y1="556.347" x2="957.698" y2="569.208"/>
		<line fill="none" stroke="#000000" stroke-miterlimit="10" x1="953.889" y1="559.782" x2="957.698" y2="569.208"/>
		<line fill="none" stroke="#000000" stroke-miterlimit="10" x1="970.115" y1="553.226" x2="973.924" y2="562.653"/>
		<path d="M1021.935,633.84l-5.19,2.097l-3.308-8.188l4.367-1.765l-0.468-0.89l-11.229,4.537l-3.308-8.188l10.405-4.204l-0.467-0.89
			l-3.359,1.357l-3.309-8.188l2.537-1.025l-0.468-0.89l-9.397,3.797l-3.309-8.188l8.576-3.464l-0.468-0.89l-1.529,0.617
			l-3.308-8.188l0.706-0.285l-0.468-0.89l-7.567,3.058l-3.308-8.188l6.745-2.725l-3.607-6.86l2.515,6.223l-26.193,10.583
			l-3.308-8.188l25.996-10.503l-0.467-0.89l-5.737,2.318l-2.996-7.416l-0.927,0.375l2.996,7.415l-12.981,5.245l-2.996-7.416
			l-0.927,0.375l2.996,7.416l-5.795,2.341l4.058,10.042l5.795-2.341l3.069,7.596l0.927-0.375l-3.069-7.596l12.98-5.244l3.308,8.188
			l-12.533,5.063l0.375,0.927l5.58-2.254l3.308,8.188l-0.344,0.139l0.375,0.927l7.298-2.948l3.308,8.188l-4.046,1.635l0.374,0.927
			l11.001-4.445l3.308,8.188l-8.787,3.55l0.375,0.927l1.833-0.741l3.309,8.188l-0.433,0.175l0.375,0.927l7.386-2.984l3.309,8.188
			l-6.754,2.729l0.188,0.463l-0.2,0.081l1.003,2.483l0.927-0.375l-0.815-2.02l12.236-4.944L1021.935,633.84z M988.105,605.095
			l-3.308-8.188l12.98-5.244l3.309,8.188L988.105,605.095z"/>
		<path d="M990.351,650.028l17.617-7.117c-8.993-22.26-29.066-46.581-37.875-43.022L990.351,650.028z"/>
	</g>
	<g>
		<polygon fill="#FFE000" stroke="#000000" stroke-width="2" stroke-miterlimit="10" points="1080.433,543.62 1085.546,534.986 
			1079.231,512.104 1065.193,514.832 1068.296,527.472 1058.806,529.317 1054.251,516.959 1040.405,519.65 1040.811,532.815 
			1031.322,534.659 1029.464,521.777 1015.425,524.506 1018.142,548.088 1026.117,554.178 1033.465,633.907 1103.487,620.296 		"/>
		
			<rect x="1035.506" y="556.47" transform="matrix(0.9816 -0.1908 0.1908 0.9816 -88.9177 208.9697)" width="10.166" height="19.417"/>
		
			<rect x="1066.426" y="550.46" transform="matrix(-0.9816 0.1908 -0.1908 -0.9816 2230.2158 905.598)" width="10.167" height="19.417"/>
		<path fill="none" stroke="#000000" stroke-miterlimit="10" d="M1089.581,623c-5.184-26.667-21.365-53.574-31.917-51.523
			c-10.552,2.051-15.476,33.06-10.292,59.728"/>
		<path d="M1058.158,574.018c-9.325,1.813-12.914,33.143-8.333,56.709l37.302-7.25
			C1082.546,599.91,1067.483,572.206,1058.158,574.018z"/>
		<line fill="none" stroke="#000000" stroke-miterlimit="10" x1="1082.795" y1="525.163" x2="1017.013" y2="537.95"/>
		<line fill="none" stroke="#000000" stroke-miterlimit="10" x1="1080.433" y1="543.62" x2="1026.117" y2="554.178"/>
		<line fill="none" stroke="#000000" stroke-miterlimit="10" x1="1085.546" y1="534.986" x2="1018.142" y2="548.088"/>
		<path d="M1102.568,617.237l-5.495,1.068l-1.685-8.669l4.625-0.899l-0.29-0.962l-11.888,2.311l-1.685-8.668l11.017-2.142
			l-0.289-0.962l-3.557,0.691l-1.685-8.668l2.686-0.522l-0.29-0.962l-9.949,1.934l-1.685-8.669l9.079-1.765l-0.29-0.962
			l-1.618,0.314l-1.685-8.669l0.748-0.145l-0.29-0.962l-8.011,1.557l-1.685-8.669l7.141-1.388l-2.232-7.423l1.281,6.589
			l-27.731,5.39l-1.685-8.668l27.522-5.35l-0.289-0.962l-6.074,1.181l-1.526-7.851l-0.982,0.19l1.526,7.851l-13.743,2.671
			l-1.526-7.851l-0.981,0.191l1.526,7.851l-6.135,1.193l-6.135,1.192l-1.526-7.851l-0.981,0.191l1.526,7.851l-13.743,2.671
			l-1.526-7.851l-0.981,0.191l1.526,7.851l-6.073,1.181l0.093,1.001l27.522-5.35l1.685,8.669l-27.731,5.39l-1.281-6.588l0.711,7.718
			l7.141-1.388l1.685,8.669l-8.011,1.557l0.092,1l0.748-0.145l1.685,8.668l-1.618,0.315l0.092,1l9.079-1.765l1.685,8.669
			l-9.949,1.934l0.092,1.001l2.686-0.522l1.685,8.669l-3.556,0.691l0.092,1.001l11.017-2.142l1.685,8.669l-11.888,2.311l0.093,1.001
			l4.624-0.899l1.685,8.669l-5.495,1.068l0.092,1.001l12.955-2.519l0.416,2.138l0.982-0.19l-0.511-2.629l-0.212,0.042l-0.095-0.491
			l-7.15,1.39l-1.685-8.669l7.819-1.52l-0.19-0.981l-0.458,0.089l-1.685-8.669l1.941-0.377l-0.191-0.982l-9.303,1.809l-1.685-8.669
			l11.646-2.264l-0.191-0.982l-4.284,0.833l-1.685-8.669l7.726-1.501l-0.19-0.982l-0.364,0.071l-1.685-8.669l5.907-1.148
			l-0.191-0.982l-13.269,2.58l-1.685-8.669l13.743-2.671l1.563,8.042l0.981-0.191l-1.563-8.042l6.135-1.192l6.135-1.192l1.563,8.042
			l0.981-0.19l-1.563-8.042l13.743-2.671l1.685,8.669l-13.269,2.579l0.19,0.981l5.907-1.148l1.685,8.669l-0.364,0.071l0.191,0.981
			l7.726-1.502l1.685,8.669l-4.284,0.833l0.19,0.982l11.646-2.264l1.685,8.669l-9.303,1.809l0.19,0.981l1.941-0.377l1.685,8.669
			l-0.458,0.089l0.191,0.981l7.819-1.52l1.685,8.668l-7.15,1.39l0.095,0.491l-0.212,0.041l0.511,2.629l0.981-0.191l-0.416-2.138
			l12.955-2.518L1102.568,617.237z M1044.202,579.526l1.685,8.669l-13.743,2.671l-1.685-8.669L1044.202,579.526z M1074.845,582.566
			l-1.685-8.669l13.743-2.671l1.685,8.669L1074.845,582.566z"/>
		<line fill="none" stroke="#000000" stroke-miterlimit="10" x1="1049.904" y1="531.557" x2="1051.844" y2="541.537"/>
		<line fill="none" stroke="#000000" stroke-miterlimit="10" x1="1032.726" y1="534.896" x2="1034.666" y2="544.876"/>
		<line fill="none" stroke="#000000" stroke-miterlimit="10" x1="1067.083" y1="528.217" x2="1069.022" y2="538.198"/>
	</g>
	<g>
		<polygon fill="#FFE000" stroke="#000000" stroke-width="2" stroke-miterlimit="10" points="1192.475,544.177 1191.517,554.131 
			1203.395,555.275 1204.354,545.321 1224.165,548.233 1217.567,616.75 1165.874,611.772 1172.471,543.256 		"/>
		<line stroke="#000000" stroke-miterlimit="10" x1="1223.254" y1="557.689" x2="1171.797" y2="552.735"/>
		<line stroke="#000000" stroke-miterlimit="10" x1="1222.296" y1="567.644" x2="1170.839" y2="562.688"/>
		<line stroke="#000000" stroke-miterlimit="10" x1="1221.338" y1="577.597" x2="1169.881" y2="572.643"/>
		<line stroke="#000000" stroke-miterlimit="10" x1="1220.379" y1="587.551" x2="1168.922" y2="582.597"/>
		<line stroke="#000000" stroke-miterlimit="10" x1="1219.42" y1="597.505" x2="1167.963" y2="592.55"/>
		<line stroke="#000000" stroke-miterlimit="10" x1="1218.462" y1="607.459" x2="1167.005" y2="602.504"/>
		<line fill="none" stroke="#000000" stroke-miterlimit="10" x1="1197.408" y1="555.201" x2="1196.449" y2="565.155"/>
		<line fill="none" stroke="#000000" stroke-miterlimit="10" x1="1189.979" y1="564.532" x2="1189.021" y2="574.486"/>
		<line fill="none" stroke="#000000" stroke-miterlimit="10" x1="1195.49" y1="575.108" x2="1194.532" y2="585.063"/>
		<line fill="none" stroke="#000000" stroke-miterlimit="10" x1="1188.063" y1="584.439" x2="1187.104" y2="594.394"/>
		<line fill="none" stroke="#000000" stroke-miterlimit="10" x1="1193.574" y1="595.017" x2="1192.615" y2="604.971"/>
		<line fill="none" stroke="#000000" stroke-miterlimit="10" x1="1186.146" y1="604.348" x2="1185.25" y2="613.638"/>
		<line fill="none" stroke="#000000" stroke-miterlimit="10" x1="1210.348" y1="556.447" x2="1209.389" y2="566.4"/>
		<line fill="none" stroke="#000000" stroke-miterlimit="10" x1="1202.92" y1="565.778" x2="1201.961" y2="575.731"/>
		<line fill="none" stroke="#000000" stroke-miterlimit="10" x1="1208.431" y1="576.354" x2="1207.473" y2="586.309"/>
		<line fill="none" stroke="#000000" stroke-miterlimit="10" x1="1201.002" y1="585.686" x2="1200.044" y2="595.64"/>
		<line fill="none" stroke="#000000" stroke-miterlimit="10" x1="1206.514" y1="596.263" x2="1205.556" y2="606.216"/>
		<line fill="none" stroke="#000000" stroke-miterlimit="10" x1="1199.086" y1="605.593" x2="1198.191" y2="614.884"/>
		<line fill="none" stroke="#000000" stroke-miterlimit="10" x1="1184.467" y1="553.955" x2="1183.509" y2="563.909"/>
		<line fill="none" stroke="#000000" stroke-miterlimit="10" x1="1177.039" y1="563.286" x2="1176.08" y2="573.24"/>
		<line fill="none" stroke="#000000" stroke-miterlimit="10" x1="1182.551" y1="573.863" x2="1181.592" y2="583.816"/>
		<line fill="none" stroke="#000000" stroke-miterlimit="10" x1="1175.122" y1="583.193" x2="1174.164" y2="593.147"/>
		<line fill="none" stroke="#000000" stroke-miterlimit="10" x1="1180.634" y1="593.771" x2="1179.676" y2="603.725"/>
		<line fill="none" stroke="#000000" stroke-miterlimit="10" x1="1173.205" y1="603.102" x2="1172.311" y2="612.392"/>
		<line fill="none" stroke="#000000" stroke-miterlimit="10" x1="1215.859" y1="567.023" x2="1214.9" y2="576.978"/>
		<line fill="none" stroke="#000000" stroke-miterlimit="10" x1="1213.942" y1="586.932" x2="1212.984" y2="596.886"/>
		<line fill="none" stroke="#000000" stroke-miterlimit="10" x1="1212.025" y1="606.839" x2="1211.131" y2="616.13"/>
	</g>
	<g>
		<polygon fill="#FFE000" stroke="#000000" stroke-width="2" stroke-miterlimit="10" points="1287.544,560.277 1284.703,569.865 
			1296.146,573.254 1298.986,563.666 1317.877,570.305 1298.328,636.304 1248.534,621.555 1268.084,555.556 		"/>
		<line stroke="#000000" stroke-miterlimit="10" x1="1315.18" y1="579.414" x2="1265.613" y2="564.732"/>
		<line stroke="#000000" stroke-miterlimit="10" x1="1312.34" y1="589.002" x2="1262.772" y2="574.319"/>
		<line stroke="#000000" stroke-miterlimit="10" x1="1309.499" y1="598.59" x2="1259.933" y2="583.908"/>
		<line stroke="#000000" stroke-miterlimit="10" x1="1306.659" y1="608.178" x2="1257.093" y2="593.496"/>
		<line stroke="#000000" stroke-miterlimit="10" x1="1303.818" y1="617.767" x2="1254.252" y2="603.084"/>
		<line stroke="#000000" stroke-miterlimit="10" x1="1300.979" y1="627.355" x2="1251.412" y2="612.672"/>
		<line fill="none" stroke="#000000" stroke-miterlimit="10" x1="1290.283" y1="572.039" x2="1287.442" y2="581.627"/>
		<line fill="none" stroke="#000000" stroke-miterlimit="10" x1="1281.21" y1="579.781" x2="1278.369" y2="589.369"/>
		<line fill="none" stroke="#000000" stroke-miterlimit="10" x1="1284.602" y1="591.215" x2="1281.762" y2="600.804"/>
		<line fill="none" stroke="#000000" stroke-miterlimit="10" x1="1275.529" y1="598.958" x2="1272.689" y2="608.546"/>
		<line fill="none" stroke="#000000" stroke-miterlimit="10" x1="1278.922" y1="610.392" x2="1276.082" y2="619.98"/>
		<line fill="none" stroke="#000000" stroke-miterlimit="10" x1="1269.85" y1="618.134" x2="1267.199" y2="627.083"/>
		<line fill="none" stroke="#000000" stroke-miterlimit="10" x1="1302.747" y1="575.731" x2="1299.906" y2="585.319"/>
		<line fill="none" stroke="#000000" stroke-miterlimit="10" x1="1293.675" y1="583.474" x2="1290.835" y2="593.062"/>
		<line fill="none" stroke="#000000" stroke-miterlimit="10" x1="1297.066" y1="594.908" x2="1294.227" y2="604.496"/>
		<line fill="none" stroke="#000000" stroke-miterlimit="10" x1="1287.994" y1="602.65" x2="1285.154" y2="612.238"/>
		<line fill="none" stroke="#000000" stroke-miterlimit="10" x1="1291.387" y1="614.084" x2="1288.547" y2="623.672"/>
		<line fill="none" stroke="#000000" stroke-miterlimit="10" x1="1282.314" y1="621.826" x2="1279.663" y2="630.775"/>
		<line fill="none" stroke="#000000" stroke-miterlimit="10" x1="1277.817" y1="568.347" x2="1274.977" y2="577.935"/>
		<line fill="none" stroke="#000000" stroke-miterlimit="10" x1="1268.746" y1="576.089" x2="1265.905" y2="585.677"/>
		<line fill="none" stroke="#000000" stroke-miterlimit="10" x1="1272.138" y1="587.523" x2="1269.298" y2="597.111"/>
		<line fill="none" stroke="#000000" stroke-miterlimit="10" x1="1263.064" y1="595.265" x2="1260.225" y2="604.854"/>
		<line fill="none" stroke="#000000" stroke-miterlimit="10" x1="1266.457" y1="606.7" x2="1263.617" y2="616.288"/>
		<line fill="none" stroke="#000000" stroke-miterlimit="10" x1="1257.385" y1="614.442" x2="1254.734" y2="623.391"/>
		<line fill="none" stroke="#000000" stroke-miterlimit="10" x1="1306.139" y1="587.166" x2="1303.299" y2="596.754"/>
		<line fill="none" stroke="#000000" stroke-miterlimit="10" x1="1300.459" y1="606.342" x2="1297.619" y2="615.931"/>
		<line fill="none" stroke="#000000" stroke-miterlimit="10" x1="1294.779" y1="625.519" x2="1292.127" y2="634.468"/>
	</g>
	<g>
		<polygon fill="#FFE000" stroke="#000000" stroke-width="2" stroke-miterlimit="10" points="1122.334,537.417 1115.667,529.917 
			1117.5,506.25 1131.801,506.25 1131.167,519.25 1140.834,519.25 1142.947,506.25 1157.053,506.25 1159.166,519.25 
			1168.833,519.25 1168.199,506.25 1182.5,506.25 1184.333,529.917 1177.666,537.417 1185.666,617.083 1114.334,617.083 		"/>
		<rect x="1160.666" y="542.25" width="10.167" height="19.417"/>
		<rect x="1129.167" y="542.25" width="10.167" height="19.417"/>
		<path fill="none" stroke="#000000" stroke-miterlimit="10" d="M1128.5,617.083c0-27.167,10.75-56.667,21.5-56.667
			s21.5,29.5,21.5,56.667"/>
		<path d="M1150,563.006c9.5,0,19,30.069,19,54.077h-38C1131,593.076,1140.5,563.006,1150,563.006z"/>
		<line fill="none" stroke="#000000" stroke-miterlimit="10" x1="1116.493" y1="519.75" x2="1183.507" y2="519.75"/>
		<line fill="none" stroke="#000000" stroke-miterlimit="10" x1="1122.334" y1="537.417" x2="1177.666" y2="537.417"/>
		<line fill="none" stroke="#000000" stroke-miterlimit="10" x1="1115.667" y1="529.917" x2="1184.333" y2="529.917"/>
		<path d="M1114.652,613.905h5.598v-8.831h-4.711l0.101-1h12.11v-8.831h-11.223l0.1-1h3.623v-8.831h-2.736l0.101-1h10.136v-8.831
			h-9.249l0.101-1h1.648v-8.831h-0.762l0.101-1h8.161v-8.831h-7.274l0.774-7.712v6.712h28.25v-8.831h-28.037l0.1-1h6.188v-7.998h1
			v7.998h14v-7.998h1v7.998h6.25h6.25v-7.998h1v7.998h14v-7.998h1v7.998h6.188l0.1,1H1150.5v8.831h28.25v-6.712l0.774,7.712h-7.274
			v8.831h8.161l0.101,1h-0.762v8.831h1.648l0.101,1h-9.249v8.831h10.136l0.101,1h-2.736v8.831h3.623l0.1,1h-11.223v8.831h12.11
			l0.101,1h-4.711v8.831h5.598l0.1,1h-13.197v2.178h-1v-2.678h0.216v-0.5h7.284v-8.831h-7.966v-1h0.466v-8.831h-1.978v-1h9.478
			v-8.831h-11.864v-1h4.364v-8.831h-7.871v-1h0.371v-8.831h-6.018v-1h13.518v-8.831h-14v8.192h-1v-8.192H1150h-6.25v8.192h-1v-8.192
			h-14v8.831h13.518v1h-6.018v8.831h0.371v1h-7.871v8.831h4.364v1h-11.864v8.831h9.478v1h-1.978v8.831h0.466v1h-7.966v8.831h7.284
			v0.5h0.216v2.678h-1v-2.178h-13.197L1114.652,613.905z M1164.75,565.75v8.831h14v-8.831H1164.75z M1135.25,574.581v-8.831h-14
			v8.831H1135.25z"/>
		<line fill="none" stroke="#000000" stroke-miterlimit="10" x1="1150" y1="519.75" x2="1150" y2="529.917"/>
		<line fill="none" stroke="#000000" stroke-miterlimit="10" x1="1167.5" y1="519.75" x2="1167.5" y2="529.917"/>
		<line fill="none" stroke="#000000" stroke-miterlimit="10" x1="1132.5" y1="519.75" x2="1132.5" y2="529.917"/>
	</g>
	<g>
		<polygon fill="#FFE000" stroke="#000000" stroke-width="2" stroke-miterlimit="10" points="1309.648,650.028 1276.58,636.667 
			1313.841,565.798 1310.469,556.347 1321.034,535.09 1334.294,540.447 1328.836,552.263 1337.799,555.885 1344.629,544.623 
			1351.168,547.265 		"/>
		
			<rect x="1314.359" y="574.037" transform="matrix(0.9272 0.3746 -0.3746 0.9272 314.7083 -451.724)" width="10.168" height="19.417"/>
		<path fill="none" stroke="#000000" stroke-miterlimit="10" d="M1289.715,641.974c10.177-25.188,31.194-48.514,41.162-44.486"/>
		<line fill="none" stroke="#000000" stroke-miterlimit="10" x1="1315.043" y1="547.23" x2="1346.111" y2="559.782"/>
		<line fill="none" stroke="#000000" stroke-miterlimit="10" x1="1313.841" y1="565.798" x2="1339.492" y2="576.163"/>
		<line fill="none" stroke="#000000" stroke-miterlimit="10" x1="1310.469" y1="556.347" x2="1342.303" y2="569.208"/>
		<line fill="none" stroke="#000000" stroke-miterlimit="10" x1="1346.111" y1="559.782" x2="1342.303" y2="569.208"/>
		<line fill="none" stroke="#000000" stroke-miterlimit="10" x1="1329.885" y1="553.226" x2="1326.076" y2="562.653"/>
		<path d="M1278.065,633.84l5.19,2.097l3.308-8.188l-4.367-1.765l0.468-0.89l11.229,4.537l3.308-8.188l-10.405-4.204l0.467-0.89
			l3.359,1.357l3.309-8.188l-2.537-1.025l0.468-0.89l9.397,3.797l3.309-8.188l-8.576-3.464l0.468-0.89l1.529,0.617l3.308-8.188
			l-0.706-0.285l0.468-0.89l7.566,3.058l3.309-8.188l-6.745-2.725l3.607-6.86l-2.515,6.223l26.193,10.583l3.309-8.188
			l-25.996-10.503l0.467-0.89l5.737,2.318l2.995-7.416l0.928,0.375l-2.996,7.415l12.98,5.245l2.996-7.416l0.928,0.375l-2.996,7.416
			l5.795,2.341l-4.058,10.042l-5.795-2.341l-3.069,7.596l-0.927-0.375l3.069-7.596l-12.98-5.244l-3.309,8.188l12.533,5.063
			l-0.375,0.927l-5.579-2.254l-3.308,8.188l0.344,0.139l-0.375,0.927l-7.298-2.948l-3.308,8.188l4.046,1.635l-0.374,0.927
			l-11.001-4.445l-3.308,8.188l8.787,3.55l-0.375,0.927l-1.833-0.741l-3.309,8.188l0.433,0.175l-0.375,0.927l-7.386-2.984
			l-3.309,8.188l6.754,2.729l-0.188,0.463l0.2,0.081l-1.003,2.483l-0.927-0.375l0.815-2.02l-12.236-4.944L1278.065,633.84z
			 M1311.895,605.095l3.309-8.188l-12.98-5.244l-3.309,8.188L1311.895,605.095z"/>
		<path d="M1309.648,650.028l-17.616-7.117c8.993-22.26,29.065-46.581,37.874-43.022L1309.648,650.028z"/>
	</g>
	<g>
		<polygon fill="#FFE000" stroke="#000000" stroke-width="2" stroke-miterlimit="10" points="1219.567,543.62 1214.453,534.986 
			1220.77,512.104 1234.807,514.832 1231.704,527.472 1241.193,529.317 1245.748,516.959 1259.596,519.65 1259.189,532.815 
			1268.678,534.659 1270.536,521.777 1284.574,524.506 1281.858,548.088 1273.883,554.178 1266.535,633.907 1196.514,620.296 		"/>
		
			<rect x="1254.328" y="556.47" transform="matrix(-0.9816 -0.1908 0.1908 -0.9816 2387.6409 1362.2749)" width="10.166" height="19.417"/>
		
			<rect x="1223.407" y="550.46" transform="matrix(0.9816 0.1908 -0.1908 0.9816 129.451 -224.1082)" width="10.167" height="19.417"/>
		<path fill="none" stroke="#000000" stroke-miterlimit="10" d="M1210.419,623c5.184-26.667,21.364-53.574,31.917-51.523
			s15.477,33.06,10.293,59.728"/>
		<path d="M1241.842,574.018c9.326,1.813,12.914,33.143,8.333,56.709l-37.302-7.25
			C1217.453,599.91,1232.517,572.206,1241.842,574.018z"/>
		<line fill="none" stroke="#000000" stroke-miterlimit="10" x1="1217.205" y1="525.163" x2="1282.987" y2="537.95"/>
		<line fill="none" stroke="#000000" stroke-miterlimit="10" x1="1219.567" y1="543.62" x2="1273.883" y2="554.178"/>
		<line fill="none" stroke="#000000" stroke-miterlimit="10" x1="1214.453" y1="534.986" x2="1281.858" y2="548.088"/>
		<path d="M1197.432,617.237l5.495,1.068l1.685-8.669l-4.624-0.899l0.29-0.962l11.888,2.311l1.685-8.668l-11.016-2.142l0.288-0.962
			l3.557,0.691l1.685-8.668l-2.686-0.522l0.289-0.962l9.949,1.934l1.686-8.669l-9.079-1.765l0.29-0.962l1.617,0.314l1.686-8.669
			l-0.748-0.145l0.29-0.962l8.011,1.557l1.686-8.669l-7.141-1.388l2.231-7.423l-1.28,6.589l27.73,5.39l1.686-8.668l-27.522-5.35
			l0.288-0.962l6.074,1.181l1.525-7.851l0.982,0.19l-1.525,7.851l13.742,2.671l1.525-7.851l0.982,0.191l-1.526,7.851l6.136,1.193
			l6.135,1.192l1.525-7.851l0.982,0.191l-1.526,7.851l13.743,2.671l1.525-7.851l0.982,0.191l-1.526,7.851l6.073,1.181l-0.093,1.001
			l-27.522-5.35l-1.685,8.669l27.731,5.39l1.28-6.588l-0.711,7.718l-7.142-1.388l-1.685,8.669l8.011,1.557l-0.092,1l-0.748-0.145
			l-1.685,8.668l1.618,0.315l-0.092,1l-9.079-1.765l-1.685,8.669l9.949,1.934l-0.092,1.001l-2.687-0.522l-1.685,8.669l3.556,0.691
			l-0.093,1.001l-11.017-2.142l-1.685,8.669l11.888,2.311l-0.093,1.001l-4.624-0.899l-1.685,8.669l5.494,1.068l-0.092,1.001
			l-12.955-2.519l-0.416,2.138l-0.982-0.19l0.512-2.629l0.212,0.042l0.095-0.491l7.15,1.39l1.686-8.669l-7.819-1.52l0.19-0.981
			l0.457,0.089l1.686-8.669l-1.941-0.377l0.191-0.982l9.303,1.809l1.686-8.669l-11.646-2.264l0.191-0.982l4.283,0.833l1.686-8.669
			l-7.727-1.501l0.191-0.982l0.363,0.071l1.686-8.669l-5.907-1.148l0.19-0.982l13.27,2.58l1.686-8.669l-13.743-2.671l-1.563,8.042
			l-0.981-0.191l1.563-8.042l-6.136-1.192l-6.135-1.192l-1.563,8.042l-0.981-0.19l1.563-8.042l-13.743-2.671l-1.685,8.669
			l13.269,2.579l-0.19,0.981l-5.907-1.148l-1.685,8.669l0.363,0.071l-0.19,0.981l-7.726-1.502l-1.686,8.669l4.283,0.833
			l-0.189,0.982l-11.646-2.264l-1.686,8.669l9.303,1.809l-0.189,0.981l-1.941-0.377l-1.686,8.669l0.457,0.089l-0.19,0.981
			l-7.819-1.52l-1.686,8.668l7.15,1.39l-0.096,0.491l0.213,0.041l-0.512,2.629l-0.981-0.191l0.415-2.138l-12.954-2.518
			L1197.432,617.237z M1255.798,579.526l-1.685,8.669l13.742,2.671l1.686-8.669L1255.798,579.526z M1225.154,582.566l1.686-8.669
			l-13.743-2.671l-1.685,8.669L1225.154,582.566z"/>
		<line fill="none" stroke="#000000" stroke-miterlimit="10" x1="1250.096" y1="531.557" x2="1248.156" y2="541.537"/>
		<line fill="none" stroke="#000000" stroke-miterlimit="10" x1="1267.274" y1="534.896" x2="1265.334" y2="544.876"/>
		<line fill="none" stroke="#000000" stroke-miterlimit="10" x1="1232.918" y1="528.217" x2="1230.978" y2="538.198"/>
	</g>
	<path fill="#FFE000" stroke="#000000" stroke-width="2" stroke-miterlimit="10" d="M1150,647.417
		c80.03,0,132.844,20.183,151.826,28.637l10.572-26.168l0.055-0.236C1297.979,642.825,1236.785,619,1150,619
		s-147.979,23.825-162.453,30.649l0.055,0.236l10.573,26.168C1017.157,667.6,1069.97,647.417,1150,647.417z"/>
	<path fill="#FFE000" stroke="#000000" stroke-width="2" stroke-miterlimit="10" d="M1150,643
		c86.75,0,141.521,23.638,155.889,30.422l5.564-13.773C1296.979,652.825,1236.785,628,1150,628s-146.979,24.825-161.453,31.649
		l5.564,13.773C1008.479,666.638,1063.25,643,1150,643z"/>
	<path fill="#FFE000" stroke="#000000" stroke-width="2" stroke-miterlimit="10" d="M1150,625
		c86.75,0,141.521,23.638,162.771,31.388l5.564-13.773C1296.979,634.825,1236.785,610,1150,610s-146.979,24.825-168.336,32.615
		l5.564,13.773C1008.479,648.638,1063.25,625,1150,625z"/>
	<path fill="#FFFFFF" stroke="#000000" stroke-miterlimit="10" d="M1162.75,536.625c0,7.042-5.708,12.75-12.75,12.75
		c-7.042,0-12.75-5.708-12.75-12.75V519.75h25.5V536.625z"/>
	<path fill="#EA2432" stroke="#000000" stroke-miterlimit="10" d="M1160.264,540.227c-1.515-2.446-2.693-7.405-3.028-9.668
		c-1.049-7.064-17.124-11.765-17.124-4.193c0,3.611,3.014,2.885,3.728,3.029c-4.12,1.481-5.358,10.833-2.563,9.668
		c0,0,6.523-2.796,10.367-1.515C1155.487,538.83,1153.74,540.227,1160.264,540.227z"/>
</g>
</svg>
