<?xml version="1.0" encoding="UTF-8" standalone="no"?>
<!-- Created with Inkscape (http://www.inkscape.org/) -->
<svg
   xmlns:dc="http://purl.org/dc/elements/1.1/"
   xmlns:cc="http://web.resource.org/cc/"
   xmlns:rdf="http://www.w3.org/1999/02/22-rdf-syntax-ns#"
   xmlns:svg="http://www.w3.org/2000/svg"
   xmlns="http://www.w3.org/2000/svg"
   xmlns:sodipodi="http://sodipodi.sourceforge.net/DTD/sodipodi-0.dtd"
   xmlns:inkscape="http://www.inkscape.org/namespaces/inkscape"
   id="svg2"
   sodipodi:version="0.32"
   inkscape:version="0.44.1"
   width="2000"
   height="1400"
   version="1.0"
   sodipodi:docbase="C:\Documents and Settings\Franklin\Meus documentos\Faculdade"
   sodipodi:docname="flag_porto_velho.svg">
  <metadata
     id="metadata7">
    <rdf:RDF>
      <cc:Work
         rdf:about="">
        <dc:format>image/svg+xml</dc:format>
        <dc:type
           rdf:resource="http://purl.org/dc/dcmitype/StillImage" />
      </cc:Work>
    </rdf:RDF>
  </metadata>
  <defs
     id="defs5" />
  <sodipodi:namedview
     inkscape:window-height="718"
     inkscape:window-width="1021"
     inkscape:pageshadow="2"
     inkscape:pageopacity="0.0"
     guidetolerance="10.0"
     gridtolerance="10.0"
     objecttolerance="10.0"
     borderopacity="1.0"
     bordercolor="#666666"
     pagecolor="#ffffff"
     id="base"
     width="2000px"
     height="1400px"
     showgrid="true"
     inkscape:zoom="0.35355339"
     inkscape:cx="1143.1237"
     inkscape:cy="787.93991"
     inkscape:window-x="-4"
     inkscape:window-y="-4"
     inkscape:current-layer="svg2" />
  <rect
     style="fill:#fc0;fill-opacity:1;stroke:none;stroke-width:4.5;stroke-linejoin:round;stroke-miterlimit:4;stroke-dasharray:none;stroke-opacity:1"
     id="rect1895"
     width="666"
     height="1400"
     x="0"
     y="-4.2807191e-005" />
  <rect
     y="0"
     x="666.66669"
     height="1400"
     width="1333.3334"
     id="rect1897"
     style="fill:#06c;fill-opacity:1;stroke:none;stroke-width:4.5;stroke-linejoin:round;stroke-miterlimit:4;stroke-dasharray:none;stroke-opacity:1" />
  <rect
     style="fill:yellow;fill-opacity:1;stroke:none;stroke-width:4.5;stroke-linejoin:round;stroke-miterlimit:4;stroke-dasharray:none;stroke-opacity:1"
     id="rect1893"
     width="0.8102656"
     height="15.800179"
     x="690.95721"
     y="-1000.4692" />
  <g
     id="g1935"
     transform="translate(-246.8864,963.7456)">
    <path
       sodipodi:nodetypes="ccccccccccccccc"
       id="path1905"
       d="M 322.61549,-706.78756 L 446.28311,-803.74565 L 572.40002,-711.37112 L 506.73444,-709.18156 L 508.23028,-456.20842 L 470.20612,-420.25732 L 439.14998,-274.74423 L 408.43047,-274.51452 L 438.92308,-406.89329 L 383.54409,-431.63635 L 351.33067,-274.26431 L 322.66861,-273.93322 L 359.28391,-461.93785 L 366.81005,-705.75131 L 322.61549,-706.78756 z "
       style="fill:black;fill-opacity:1;stroke:none;stroke-width:4.5;stroke-linejoin:round;stroke-miterlimit:4;stroke-opacity:1" />
    <path
       sodipodi:nodetypes="cccccccccccccccccc"
       id="rect1908"
       d="M 492.69881,-427.86087 L 520.19681,-456.44692 L 519.49031,-704.61804 L 588.49751,-705.76946 L 516.04341,-767.7394 L 548.17851,-802.2452 L 660.57151,-709.74946 L 611.85121,-711.20469 L 610.16951,-440.05574 L 561.08921,-401.38863 L 587.01526,-273.56839 L 556.23926,-274.53271 L 550.02161,-321.3396 L 541.97211,-324.15795 L 531.65901,-273.73885 L 499.00121,-273.73885 L 531.56121,-404.9391 L 492.69881,-427.86087 z "
       style="fill:black;fill-opacity:1;stroke:none;stroke-width:4.5;stroke-linejoin:round;stroke-miterlimit:4;stroke-opacity:1" />
    <path
       sodipodi:nodetypes="ccccccccccccccccc"
       id="rect1911"
       d="M 607.28761,-768.7628 L 639.37261,-801.9935 L 761.40991,-700.00946 L 720.70531,-697.73979 L 722.47901,-453.64665 L 766.88641,-274.31006 L 736.77331,-274.40364 L 703.34031,-443.08435 L 655.32321,-401.81343 L 679.47851,-274.40996 L 645.41161,-274.42076 L 624.36081,-413.52246 L 598.99904,-416.40829 L 623.87141,-442.77792 L 623.90151,-704.11752 L 683.48921,-703.44711 L 607.28761,-768.7628 z "
       style="fill:black;fill-opacity:1;stroke:none;stroke-width:4.5;stroke-linejoin:round;stroke-miterlimit:4;stroke-opacity:1" />
  </g>
</svg>
