<?xml version="1.0" encoding="utf-8"?>
<!-- Generator: Adobe Illustrator 15.1.0, SVG Export Plug-In . SVG Version: 6.00 Build 0)  -->
<!DOCTYPE svg PUBLIC "-//W3C//DTD SVG 1.1//EN" "http://www.w3.org/Graphics/SVG/1.1/DTD/svg11.dtd">
<svg version="1.1" xmlns="http://www.w3.org/2000/svg" xmlns:xlink="http://www.w3.org/1999/xlink" x="0px" y="0px" width="1000px"
	 height="700px" viewBox="-350 -200 1000 700" enable-background="new -350 -200 1000 700" xml:space="preserve">
<g id="fundobranco">
	<rect x="-350" y="-200" fill="#FFFFFF" width="1000" height="700"/>
</g>
<g id="brasao">
	<g id="Layer_x0020_1">
		<g id="_118588752">
			<g>
				<polygon id="_116903944" fill="#FFF500" stroke="#1F1A17" points="62.734,281.644 40.182,304.995 24.799,301.699 
					47.351,278.347 				"/>
				<polygon id="_116904016" fill="#FFF500" stroke="#1F1A17" points="68.144,286.869 45.594,310.221 49.425,325.479 
					71.976,302.126 				"/>
				<polygon id="_116904088" fill="#FFF500" stroke="#1F1A17" points="267.805,69.401 34.419,310.962 40.133,316.479 
					273.557,74.958 281.817,89.417 291.684,50.271 252.951,61.533 				"/>
				<polygon id="_116904160" fill="#FFF500" stroke="#1F1A17" points="237.268,281.644 259.819,304.995 275.201,301.699 
					252.649,278.347 				"/>
				<polygon id="_116904232" fill="#FFF500" stroke="#1F1A17" points="231.856,286.869 254.406,310.221 250.576,325.479 
					228.024,302.126 				"/>
				<polygon id="_116904304" fill="#FFF500" stroke="#1F1A17" points="32.196,69.401 265.58,310.962 259.869,316.479 26.445,74.958 
					18.182,89.417 8.317,50.271 47.05,61.533 				"/>
			</g>
			<path id="_116904400" fill="#FFFFFF" stroke="#1F1A17" d="M58.439,76.742h182.319l0.004,137.664
				c0,40.976-40.824,74.205-91.161,74.205c-50.337,0-91.161-33.229-91.161-74.205V76.742H58.439z"/>
			<path id="_116904472" fill="#FDFDFB" d="M130.077,310.198c0-2.109,0.619-2.775,2.738-2.775h4.683
				c-0.619-2.109-0.266-2.774-2.827-2.774h-2.738c-3.092,0-3.623,2.663-4.681,4.662v1.776v2.886v1.775l1.943,3.775h1.767h4.681
				v-1.888l-5.653-0.888L130.077,310.198z"/>
			<path id="_116904544" fill="#003C9B" stroke="#1F1A17" d="M18.848,201.226h-0.003H18.848z"/>
			<path id="_116904616" fill="#013E99" stroke="#1F1A17" d="M58.44,166.671h182.322v47.735c0,40.976-40.824,74.204-91.161,74.204
				c-50.337,0-91.161-33.229-91.161-74.204V166.671L58.44,166.671z"/>
			<path id="_116904664" fill="none" stroke="#1F1A17" d="M240.623,217.573c-182.035,0-182.02,0-182.02,0"/>
			<path id="_116904736" fill="#00923F" stroke="#1F1A17" d="M107.825,217.573c-16.038,0-32.077,0-48.113,0
				C72.157,196.15,93.969,199.645,107.825,217.573z"/>
			<g>
				<path id="_116904808" fill="#00923F" stroke="#1F1A17" d="M137.805,217.653l102.818-0.08c0.125-2.751,0.059-5.51,0.059-8.262
					c0-0.021,0.016-0.05,0-0.063c-4.408-3.64-9.293-7.463-12.451-12.279c-7.451-11.36-7.162-27.532-24.297-24.991
					c-2.32,0.345-3.971,1.17-5.619,2.115c-10.961,6.287-15.928,22.749-24.752,31.915c-6.348,6.602-14.447-0.543-23.417,2.08
					C144.514,209.741,141.544,213.355,137.805,217.653L137.805,217.653z"/>
				<path id="_116904880" fill="none" stroke="#1F1A17" d="M202.711,179.586c-10.961,6.288-13.311,16.894-19.77,25.549
					c-3.584,4.801-5.465,6.371-13.775,8.237"/>
			</g>
			<path id="_116904976" fill="none" stroke="#FFFFFF" d="M230.164,221.239c1.088,1.995,4.602,4.297,8.857,4.297
				c0.133,0,0.268-0.002,0.398-0.007 M148.857,280.571c1.086,1.995,4.6,4.297,8.858,4.297s7.922-2.302,9.063-4.297 M184.016,245.412
				c1.088,1.995,4.602,4.297,8.857,4.297c4.26,0,7.926-2.302,9.064-4.297 M219.176,245.412c1.088,1.995,4.602,4.297,8.859,4.297
				c0.664,0,1.316-0.058,1.945-0.159 M69.026,249.683c0.258,0.016,0.523,0.026,0.79,0.026c4.258,0,7.922-2.302,9.062-4.297
				 M78.537,245.412c1.086,1.995,4.601,4.297,8.858,4.297c4.258,0,7.922-2.302,9.063-4.297 M96.116,245.412
				c1.086,1.995,4.601,4.297,8.859,4.297s7.923-2.302,9.062-4.297 M113.697,245.412c1.087,1.995,4.601,4.297,8.858,4.297
				c4.258,0,7.923-2.302,9.063-4.297 M131.276,245.412c1.087,1.995,4.602,4.297,8.859,4.297c4.257,0,7.923-2.302,9.063-4.297
				 M148.857,245.412c1.086,1.995,4.6,4.297,8.858,4.297s7.922-2.302,9.063-4.297 M166.438,245.412
				c1.086,1.995,4.6,4.297,8.857,4.297s7.924-2.302,9.063-4.297 M201.596,245.412c1.088,1.995,4.604,4.297,8.857,4.297
				c4.26,0,7.926-2.302,9.064-4.297 M192.807,254.202c1.086,1.995,4.602,4.296,8.857,4.296c4.258,0,7.924-2.301,9.064-4.296
				 M157.647,254.202c1.088,1.995,4.602,4.296,8.859,4.296c4.256,0,7.922-2.301,9.061-4.296 M140.067,254.202
				c1.086,1.995,4.602,4.296,8.859,4.296c4.258,0,7.922-2.301,9.061-4.296 M122.487,254.202c1.086,1.995,4.602,4.296,8.857,4.296
				c4.258,0,7.923-2.301,9.063-4.296 M104.907,254.202c1.086,1.995,4.601,4.296,8.857,4.296c4.258,0,7.923-2.301,9.063-4.296
				 M87.327,254.202c1.086,1.995,4.601,4.296,8.857,4.296c4.258,0,7.923-2.301,9.062-4.296 M75.578,258.107
				c0.944,0.246,1.961,0.391,3.027,0.391c4.257,0,7.923-2.301,9.062-4.296 M210.387,254.202c1.086,1.995,4.602,4.296,8.859,4.296
				c1.695,0,3.297-0.364,4.684-0.932 M175.227,254.202c1.086,1.995,4.602,4.296,8.857,4.296c4.258,0,7.924-2.301,9.063-4.296
				 M184.016,262.993c1.088,1.994,4.602,4.294,8.859,4.294s7.924-2.3,9.063-4.294 M148.857,262.993
				c1.086,1.994,4.6,4.294,8.858,4.294s7.922-2.3,9.063-4.294 M131.276,262.993c1.087,1.994,4.602,4.294,8.86,4.294
				c4.256,0,7.922-2.3,9.062-4.294 M113.697,262.993c1.087,1.994,4.601,4.294,8.858,4.294c4.258,0,7.923-2.3,9.063-4.294
				 M96.116,262.993c1.086,1.994,4.601,4.294,8.859,4.294s7.923-2.3,9.062-4.294 M84.816,267.005
				c0.815,0.182,1.682,0.282,2.579,0.282c4.258,0,7.922-2.3,9.063-4.294 M201.596,262.993c1.088,1.994,4.604,4.294,8.857,4.294
				c1.531,0,2.986-0.296,4.273-0.771 M166.438,262.993c1.086,1.994,4.6,4.294,8.857,4.294s7.924-2.3,9.061-4.294 M174.127,271.783
				c1.088,1.993,4.602,4.295,8.859,4.295s7.922-2.302,9.063-4.295 M138.968,271.783c1.087,1.993,4.602,4.295,8.858,4.295
				c4.258,0,7.922-2.302,9.063-4.295 M121.387,271.783c1.087,1.993,4.602,4.295,8.859,4.295c4.257,0,7.923-2.302,9.062-4.295
				 M103.808,271.783c1.086,1.993,4.602,4.295,8.858,4.295c4.258,0,7.923-2.302,9.062-4.295 M97.405,275.854
				c3.224-0.626,5.818-2.45,6.744-4.07 M191.707,271.783c1.086,1.993,4.602,4.295,8.859,4.295 M156.547,271.783
				c1.088,1.993,4.602,4.295,8.859,4.295s7.922-2.302,9.063-4.295 M166.438,280.571c1.086,1.995,4.6,4.297,8.857,4.297
				s7.924-2.302,9.061-4.297 M131.276,280.571c1.087,1.995,4.602,4.297,8.859,4.297c4.256,0,7.923-2.302,9.062-4.297
				 M113.697,280.571c1.087,1.995,4.601,4.297,8.857,4.297c4.258,0,7.924-2.302,9.063-4.297 M112.046,282.632
				c0.909-0.651,1.601-1.374,1.991-2.061 M184.016,280.571c0.424,0.78,1.221,1.606,2.285,2.323 M61.232,232.926
				c1.59-0.824,2.792-1.898,3.36-2.896 M195.004,237.72c1.088,1.996,4.602,4.297,8.859,4.297s7.922-2.301,9.063-4.297
				 M159.844,237.72c1.088,1.996,4.602,4.297,8.859,4.297s7.922-2.301,9.063-4.297 M142.264,237.72
				c1.087,1.996,4.602,4.297,8.859,4.297c4.258,0,7.922-2.301,9.063-4.297 M124.684,237.72c1.086,1.996,4.603,4.297,8.859,4.297
				c4.258,0,7.923-2.301,9.062-4.297 M107.105,237.72c1.086,1.996,4.602,4.297,8.859,4.297c4.257,0,7.922-2.301,9.062-4.297
				 M89.524,237.72c1.087,1.996,4.602,4.297,8.859,4.297c4.257,0,7.923-2.301,9.063-4.297 M71.944,237.72
				c1.087,1.996,4.602,4.297,8.858,4.297c4.258,0,7.923-2.301,9.063-4.297 M64.6,241.938c3.655-0.421,6.67-2.44,7.685-4.218
				 M212.584,237.72c1.086,1.996,4.604,4.297,8.859,4.297c4.258,0,7.924-2.301,9.063-4.297 M177.426,237.72
				c1.086,1.996,4.602,4.297,8.857,4.297s7.922-2.301,9.063-4.297 M204.893,230.029c1.088,1.996,4.602,4.296,8.859,4.296
				s7.924-2.3,9.063-4.296 M169.735,230.029c1.086,1.996,4.6,4.296,8.857,4.296s7.922-2.3,9.063-4.296 M152.153,230.029
				c1.088,1.996,4.604,4.296,8.859,4.296c4.258,0,7.924-2.3,9.063-4.296 M134.573,230.029c1.088,1.996,4.601,4.296,8.859,4.296
				s7.924-2.3,9.063-4.296 M116.993,230.029c1.086,1.996,4.601,4.296,8.859,4.296c4.257,0,7.923-2.3,9.062-4.296 M99.414,230.029
				c1.086,1.996,4.601,4.296,8.858,4.296c4.258,0,7.922-2.3,9.062-4.296 M81.833,230.029c1.087,1.996,4.602,4.296,8.86,4.296
				s7.922-2.3,9.062-4.296 M64.253,230.029c1.088,1.996,4.603,4.296,8.859,4.296c4.258,0,7.923-2.3,9.063-4.296 M222.473,230.029
				c1.086,1.996,4.604,4.296,8.857,4.296c2.396,0,4.605-0.729,6.279-1.719 M187.315,230.029c1.086,1.996,4.6,4.296,8.857,4.296
				c4.256,0,7.922-2.3,9.061-4.296 M159.844,221.239c1.088,1.995,4.602,4.297,8.857,4.297c4.26,0,7.924-2.302,9.063-4.297
				 M142.264,221.239c1.087,1.995,4.601,4.297,8.857,4.297c4.26,0,7.924-2.302,9.064-4.297 M124.684,221.239
				c1.086,1.995,4.601,4.297,8.857,4.297c4.259,0,7.925-2.302,9.063-4.297 M107.105,221.239c1.086,1.995,4.601,4.297,8.857,4.297
				c4.259,0,7.923-2.302,9.063-4.297 M89.524,221.239c1.087,1.995,4.602,4.297,8.859,4.297c4.257,0,7.923-2.302,9.063-4.297
				 M71.944,221.239c1.087,1.995,4.601,4.297,8.858,4.297c4.258,0,7.923-2.302,9.063-4.297 M59.247,224.854
				c1.198,0.421,2.546,0.682,3.976,0.682c4.258,0,7.923-2.302,9.062-4.297 M212.584,221.239c1.086,1.995,4.602,4.297,8.859,4.297
				s7.924-2.302,9.063-4.297 M177.424,221.239c1.088,1.995,4.602,4.297,8.859,4.297c4.256,0,7.922-2.302,9.063-4.297
				 M195.004,221.239c1.088,1.995,4.602,4.297,8.859,4.297s7.922-2.302,9.063-4.297 M230.164,237.72
				c0.697,1.278,2.117,2.576,4.361,3.421"/>
			<g>
				<rect id="_116905048" x="136.65" y="221.818" fill="#FFFFFF" stroke="#1F1A17" width="18.196" height="4.042"/>
				<rect id="_116905120" x="111.379" y="221.311" fill="#FFFFFF" stroke="#1F1A17" width="11.12" height="4.549"/>
				<path id="_116905192" fill="#1F1A17" stroke="#1F1A17" d="M79.284,236.651l-2.577-7.769l110.81-0.581l-6.264,8.35
					C181.254,236.651,181.506,236.651,79.284,236.651L79.284,236.651z"/>
				<rect id="_116905264" x="131.595" y="217.269" fill="#FFFFFF" stroke="#1F1A17" width="21.481" height="4.55"/>
				<path id="_116905336" fill="none" stroke="#1F1A17" d="M160.153,184.795c0,43.584,0,43.584,0,43.584"/>
				<path id="_116905408" fill="#FFFFFF" stroke="#1F1A17" d="M120.096,201.601c1.495-0.169,3.557,0.342,4.423-0.886
					c0.603-0.849-1.364-1.64-2.274-2.148c-0.954-0.531-2.065-0.884-3.16-0.884c-0.812,0-1.535,0.547-2.274,0.884
					c-0.736,0.338-1.341,1.069-2.147,1.138c-0.797,0.068-1.541-0.443-2.274-0.758c-1.038-0.444-1.939-1.236-3.034-1.517
					c-0.937-0.239-2.024-0.401-2.905,0c-0.767,0.351-0.686,1.896-1.517,2.022c-0.987,0.148-1.735-1-2.654-1.391
					c-0.771-0.327-1.566-0.84-2.401-0.758c-1.012,0.1-1.871,0.809-2.78,1.263c-0.775,0.389-1.829,0.521-2.274,1.265
					c-0.252,0.42,0.277,1.168,0.758,1.264c1.004,0.199,2.024-0.324,3.032-0.506c0.635-0.113,1.269-0.522,1.896-0.379
					c0.583,0.135,0.94,0.744,1.39,1.137c0.516,0.45,0.848,1.236,1.517,1.391c0.609,0.141,1.238-0.302,1.769-0.632
					c0.506-0.316,0.725-1.013,1.264-1.264c1.004-0.468,2.118-0.906,3.222-0.823c0.693,0.053,1.077,0.905,1.705,1.201
					c0.509,0.241,1.083,0.34,1.644,0.381c1.218,0.086,2.443,0,3.664,0C117.823,201.601,118.968,201.725,120.096,201.601
					L120.096,201.601z"/>
				<rect id="_116905480" x="111.379" y="225.86" fill="#FFFFFF" stroke="#1F1A17" width="43.467" height="4.095"/>
				<rect id="_116901976" x="80.927" y="227.91" fill="#FFFFFF" stroke="#1F1A17" width="30.452" height="2.045"/>
				<rect id="_116902048" x="120.098" y="200.718" fill="#1F1A17" stroke="#1F1A17" width="8.846" height="19.583"/>
				<path id="_116901904" fill="none" stroke="#1F1A17" d="M106.451,188.204c0,41.742,0,41.742,0,41.742"/>
				<rect id="_116901784" x="111.379" y="218.784" fill="#FFFFFF" stroke="#1F1A17" width="11.12" height="2.526"/>
				<polygon id="_116901688" fill="#FFFFFF" stroke="#1F1A17" points="122.499,225.859 136.65,225.859 136.65,223.84 
					122.499,223.84 				"/>
				<rect id="_116901760" x="122.499" y="220.301" fill="#FFFFFF" stroke="#1F1A17" width="14.151" height="3.538"/>
			</g>
			<g>
				<path id="_116901568" fill="#FFFFFF" stroke="#1F1A17" d="M118.867,7.072l4.892-0.438l-0.041-5.542l4.463-0.396l-3.642,44.752
					l-11.03-43.45l4.865-0.431L118.867,7.072L118.867,7.072z M125.478,34.187l-3.702,0.377 M123.164,28.871l-0.464-5.505
					C123.164,28.871,123.164,28.871,123.164,28.871z M117.643,18.281l9.187-0.84C117.643,18.281,117.643,18.281,117.643,18.281z
					 M122.275,17.858l-0.502-5.502C122.275,17.858,122.275,17.858,122.275,17.858z M116.265,12.854l11.016-0.994
					C116.265,12.854,116.265,12.854,116.265,12.854z M127.73,6.279l-3.972,0.356 M119.02,23.71l7.359-0.686
					C119.02,23.71,119.02,23.71,119.02,23.71z M120.398,29.137l5.53-0.532C120.398,29.137,120.398,29.137,120.398,29.137z
					 M118.867,7.072c-3.98,0.354-3.98,0.354-3.98,0.354"/>
				<path id="_116901616" fill="#FFFFFF" stroke="#1F1A17" d="M75.345,54.518L51.62,62.441L32.71,3.418l-4.968-3.254l-3.745-7.964
					l9.409-3.127l2.313,6.514l6.842-2.446l-1.736-6.503l9.337-3.004l2.878,8.394l-1.328,5.278L75.345,54.518L75.345,54.518z
					 M45.296-0.63l1.766,5.485 M45.165,17.191l1.71,5.314 M56.058,7.825l-19.875,6.391 M41.116,6.768l1.71,5.313 M51.712-2.694
					L32.71,3.418 M40.747,28.398l-1.145-3.555C40.747,28.398,40.747,28.398,40.747,28.398z M37.893,19.53l-1.709-5.314
					C37.893,19.53,37.893,19.53,37.893,19.53z M53.92,2.649L34.475,8.903 M49.628,9.798l1.762,5.485 M53.99,20.169l1.649,5.429
					 M68.885,38.879l-12.393,3.984 M58.294,30.513l1.648,5.426 M60.333,18.176l-20.731,6.667 M58.195,13l-20.301,6.531
					 M64.609,28.526L52.601,32.39 M66.746,33.703l-11.96,3.848 M71.023,44.054l-12.822,4.124 M62.596,40.854l1.65,5.428
					 M73.16,49.23l-13.252,4.263 M66.902,51.195l1.647,5.428 M62.471,23.351l-15.543,5"/>
				<path id="_116901520" fill="#FFFFFF" stroke="#1F1A17" d="M71.457,9.134c3.887,45.383,3.887,45.383,3.887,45.383L58.195,12.999
					l4.947-1.44l1.549,5.317l4.038-1.207l-1.567-5.251L71.457,9.134L71.457,9.134z M73.831,36.952
					c-4.946,1.927-4.946,1.927-4.946,1.927 M72.925,25.87c-8.316,2.657-8.316,2.657-8.316,2.657 M72.39,20.261
					c-9.919,3.09-9.919,3.09-9.919,3.09 M70.081,32.575c1.276,5.339,1.276,5.339,1.276,5.339 M74.394,42.605
					c-3.39,1.401-3.39,1.401-3.39,1.401 M73.414,31.448c-6.668,2.254-6.668,2.254-6.668,2.254 M71.913,14.719
					c-11.58,3.458-11.58,3.458-11.58,3.458 M67.431,21.807c1.335,5.391,1.335,5.391,1.335,5.391"/>
				<path id="_116898064" fill="none" stroke="#1F1A17" d="M75.345,54.518l49.217-9.046C75.345,54.518,75.345,54.518,75.345,54.518z
					"/>
				<line id="_116898112" fill="none" stroke="#1F1A17" x1="108.323" y1="8.495" x2="109.183" y2="14.102"/>
				<line id="_116898160" fill="none" stroke="#1F1A17" x1="111.108" y1="19.345" x2="111.967" y2="24.952"/>
				<line id="_116898208" fill="none" stroke="#1F1A17" x1="113.893" y1="30.195" x2="114.752" y2="35.803"/>
				<line id="_116898256" fill="none" stroke="#1F1A17" x1="116.677" y1="41.045" x2="117.536" y2="46.652"/>
				<line id="_116898304" fill="none" stroke="#1F1A17" x1="80.854" y1="47.079" x2="81.997" y2="53.294"/>
				<line id="_116898352" fill="none" stroke="#1F1A17" x1="80.822" y1="35.76" x2="81.786" y2="41.442"/>
				<line id="_116898400" fill="none" stroke="#1F1A17" x1="79.872" y1="24.599" x2="80.835" y2="30.28"/>
				<line id="_116898448" fill="none" stroke="#1F1A17" x1="78.922" y1="13.437" x2="79.886" y2="19.119"/>
				<line id="_116898496" fill="none" stroke="#1F1A17" x1="77.971" y1="2.275" x2="78.934" y2="7.957"/>
				<line id="_116898544" fill="none" stroke="#1F1A17" x1="105.485" y1="-2.393" x2="106.449" y2="3.289"/>
				<line id="_116898592" fill="none" stroke="#1F1A17" x1="113.51" y1="1.999" x2="71.457" y2="9.134"/>
				<line id="_116898640" fill="none" stroke="#1F1A17" x1="110.754" y1="-8.857" x2="70.478" y2="-2.022"/>
				<path id="_116898688" fill="none" stroke="#1F1A17" d="M92.482,5.567l-0.933-5.503C92.482,5.567,92.482,5.567,92.482,5.567z"/>
				<path id="_116898736" fill="none" stroke="#1F1A17" d="M94.042,14.75l-0.625-3.681C94.042,14.75,94.042,14.75,94.042,14.75z"/>
				<line id="_116898784" fill="none" stroke="#1F1A17" x1="116.265" y1="12.854" x2="100.169" y2="15.585"/>
				<line id="_116898832" fill="none" stroke="#1F1A17" x1="117.644" y1="18.281" x2="105.206" y2="20.393"/>
				<line id="_116898880" fill="none" stroke="#1F1A17" x1="119.021" y1="23.71" x2="106.631" y2="25.811"/>
				<line id="_116898928" fill="none" stroke="#1F1A17" x1="120.398" y1="29.137" x2="107.564" y2="31.314"/>
				<line id="_116898976" fill="none" stroke="#1F1A17" x1="121.776" y1="34.565" x2="108.497" y2="36.818"/>
				<line id="_116899024" fill="none" stroke="#1F1A17" x1="123.155" y1="39.993" x2="109.429" y2="42.321"/>
				<line id="_116899072" fill="none" stroke="#1F1A17" x1="114.887" y1="7.427" x2="71.913" y2="14.719"/>
				<line id="_116899120" fill="none" stroke="#1F1A17" x1="109.331" y1="-14.459" x2="69.971" y2="-7.781"/>
				<line id="_116899168" fill="none" stroke="#1F1A17" x1="102.687" y1="-13.332" x2="103.65" y2="-7.651"/>
				<line id="_116899216" fill="none" stroke="#1F1A17" x1="76.617" y1="-8.907" x2="77.581" y2="-3.226"/>
				<polygon id="_116899264" fill="none" stroke="#1F1A17" points="124.562,45.537 75.345,54.518 69.971,-7.781 66.326,-11.848 
					64.851,-20.543 71.538,-21.729 72.655,-15.146 79.077,-16.236 77.959,-22.819 84.183,-23.875 85.302,-17.292 91.722,-18.382 
					90.606,-24.966 97.219,-26.087 98.336,-19.503 104.759,-20.593 103.64,-27.177 109.746,-28.214 111.398,-19.496 
					109.331,-14.459 				"/>
				<line id="_116899312" fill="none" stroke="#1F1A17" x1="89.652" y1="-11.12" x2="90.616" y2="-5.439"/>
				<line id="_116899360" fill="none" stroke="#1F1A17" x1="97.495" y1="-6.606" x2="98.428" y2="-1.104"/>
				<line id="_116899408" fill="none" stroke="#1F1A17" x1="83.737" y1="-4.272" x2="84.67" y2="1.231"/>
				<line id="_116899456" fill="none" stroke="#1F1A17" x1="112.132" y1="-3.428" x2="70.967" y2="3.557"/>
				<line id="_116899504" fill="none" stroke="#1F1A17" x1="88.414" y1="45.887" x2="74.884" y2="48.183"/>
				<line id="_116899552" fill="none" stroke="#1F1A17" x1="87.48" y1="40.384" x2="74.394" y2="42.605"/>
				<line id="_116899600" fill="none" stroke="#1F1A17" x1="86.546" y1="34.881" x2="73.906" y2="37.026"/>
				<line id="_116899648" fill="none" stroke="#1F1A17" x1="85.613" y1="29.378" x2="73.414" y2="31.447"/>
				<line id="_116899696" fill="none" stroke="#1F1A17" x1="85.172" y1="23.791" x2="72.925" y2="25.87"/>
				<line id="_116899744" fill="none" stroke="#1F1A17" x1="88.343" y1="17.591" x2="72.344" y2="20.306"/>
				<line id="_116899792" fill="none" stroke="#1F1A17" x1="84.423" y1="6.935" x2="85.357" y2="12.438"/>
				<line id="_116899840" fill="none" stroke="#1F1A17" x1="100.014" y1="4.289" x2="100.948" y2="9.792"/>
				<path id="_116899912" fill="#1F1A17" stroke="#1F1A17" d="M102.448,24.32c-0.625-3.692-4.13-6.18-7.823-5.553
					s-6.18,4.13-5.553,7.823l4.206,24.633l13.341-2.452L102.448,24.32L102.448,24.32z"/>
				<path id="_116899960" fill="#FFFFFF" stroke="#1F1A17" d="M141.864,0.763v5.582 M157.678,0.763v5.582 M155.596,11.927h16.229
					 M159.76,17.508h12.42 M160.26,23.09h12.371 M160.26,28.671h12.822 M160.26,34.253h13.271 M160.26,39.834h13.723 M128.626-4.819
					h41.753 M156.479-10.399v5.581 M142.526-10.399v5.581 M149.503-16.162v5.763 M124.562,45.537l49.887,0.065l-4.986-61.765
					l2.914-4.62v-8.82l-6.791-0.05v6.678h-6.514v-6.678h-6.314v6.678h-6.511v-6.678h-6.709v6.678h-6.514v-6.678h-6.192l-0.17,8.87
					l2.88,4.62L124.562,45.537L124.562,45.537z M162.723-16.162v5.763 M136.281-16.162v5.763 M129.542-16.162h39.921 M127.724,6.345
					h43.555 M125.023,39.834h13.92 M125.473,34.253h13.47 M125.923,28.671h13.02 M126.374,23.09h12.567 M126.825,17.508h12.614
					 M127.275,11.927h16.327 M149.502,10.08V6.345C149.502,10.08,149.502,10.08,149.502,10.08z M149.502,0.763v-5.582
					C149.502,0.763,149.502,0.763,149.502,0.763z M129.077-10.399h40.851 M128.176,0.763h42.655 M135.351-4.908v5.761 M163.26-4.908
					v5.761 M164.19,6.255v5.762 M165.121,17.418v5.761 M166.051,28.581v5.762 M167.91,39.745v5.792 M131.585,39.79l0.091,5.671
					 M132.514,28.626l0.091,5.672 M133.444,17.463l0.092,5.671 M134.375,6.299l0.092,5.671 M124.562,45.537l49.887,0.065"/>
				<path id="_116900008" fill="none" stroke="#1F1A17" d="M138.94,20.739c0-5.885,4.773-10.66,10.659-10.66
					s10.661,4.774,10.661,10.66 M138.94,20.739l0.003,24.798 M160.26,20.739v24.798"/>
				<path id="_116900056" fill="none" stroke="#1F1A17" d="M106.239,23.494c-0.983-5.803-6.49-9.711-12.292-8.727
					c-5.803,0.985-9.711,6.491-8.727,12.294 M106.239,23.494l4.245,24.566 M85.219,27.061l4.303,24.852"/>
				<line id="_116900104" fill="none" stroke="#1F1A17" x1="75.345" y1="54.518" x2="52.598" y2="62.07"/>
				<path id="_116900152" fill="none" stroke="#1F1A17" d="M106.239,23.494c-0.983-5.803-6.49-9.711-12.292-8.727
					c-5.803,0.985-9.711,6.491-8.727,12.294 M106.239,23.494l4.245,24.566 M85.219,27.061l4.303,24.852"/>
				<path id="_116900224" fill="none" stroke="#1F1A17" d="M54.066,35.313c-1.803-5.604-7.81-8.687-13.413-6.885 M54.066,35.313
					l7.703,23.709"/>
				<path id="_116900272" fill="#1F1A17" stroke="#1F1A17" d="M41.955,32.273c3.551-1.109,7.337,0.852,8.476,4.399l7.617,23.605
					l-6.428,2.164L41.955,32.273z"/>
				<path id="_116900344" fill="#1F1A17" stroke="#1F1A17" d="M142.816,20.92c0-3.746,3.038-6.784,6.784-6.784
					c3.744,0,6.783,3.038,6.783,6.784v24.339l-13.567,0.119V20.92L142.816,20.92z"/>
				<path id="_116900392" fill="#FFFFFF" stroke="#1F1A17" d="M180.145,7.138l-4.893-0.437l0.039-5.542l-4.461-0.396l3.641,44.752
					l11.031-43.451l-4.867-0.431l-0.492,5.503H180.145z M173.531,34.253l3.703,0.377 M175.848,28.937l0.463-5.505
					C175.848,28.937,175.848,28.937,175.848,28.937z M181.367,18.347l-9.188-0.839C181.367,18.347,181.367,18.347,181.367,18.347z
					 M176.737,17.924l0.5-5.501C176.737,17.924,176.737,17.924,176.737,17.924z M182.746,12.92l-11.016-0.993
					C182.746,12.92,182.746,12.92,182.746,12.92z M171.28,6.345l3.973,0.356 M179.99,23.775l-7.359-0.686
					C179.99,23.775,179.99,23.775,179.99,23.775z M178.612,29.203l-5.529-0.532C178.612,29.203,178.612,29.203,178.612,29.203z
					 M180.143,7.138c3.98,0.355,3.98,0.355,3.98,0.355"/>
				<path id="_116900440" fill="#FFFFFF" stroke="#1F1A17" d="M223.666,54.583l23.725,7.924l18.91-59.023l4.969-3.254l3.742-7.964
					l-9.408-3.127l-2.313,6.513l-6.842-2.446l1.738-6.502l-9.34-3.004l-2.877,8.393l1.326,5.279L223.666,54.583L223.666,54.583z
					 M253.713-0.564l-1.764,5.485 M253.846,17.257l-1.711,5.313 M242.953,7.891l19.873,6.392 M257.893,6.833l-1.707,5.313
					 M247.297-2.628l19.004,6.112 M258.264,28.465l1.145-3.555C258.264,28.465,258.264,28.465,258.264,28.465z M261.119,19.596
					l1.707-5.313C261.119,19.596,261.119,19.596,261.119,19.596z M245.09,2.715l19.445,6.254 M249.385,9.864l-1.766,5.485
					 M245.022,20.235l-1.65,5.428 M230.125,38.945l12.393,3.984 M240.717,30.578l-1.648,5.427 M238.678,18.243l20.73,6.667
					 M240.815,13.065l20.305,6.531 M234.403,28.593l12.008,3.862 M232.264,33.768l11.961,3.849 M227.989,44.12l12.82,4.124
					 M236.414,40.919l-1.65,5.428 M225.85,49.296l13.252,4.263 M232.112,51.262l-1.65,5.426 M236.539,23.417l15.543,5"/>
				<path id="_116900488" fill="#FFFFFF" stroke="#1F1A17" d="M227.553,9.201c-3.887,45.382-3.887,45.382-3.887,45.382
					l17.148-41.518l-4.945-1.441l-1.551,5.317l-4.037-1.206l1.566-5.251L227.553,9.201z M225.18,37.018
					c4.945,1.928,4.945,1.928,4.945,1.928 M226.084,25.936c8.316,2.657,8.316,2.657,8.316,2.657 M226.621,20.327
					c9.918,3.09,9.918,3.09,9.918,3.09 M228.928,32.642c-1.275,5.339-1.275,5.339-1.275,5.339 M224.617,42.67
					c3.391,1.402,3.391,1.402,3.391,1.402 M225.596,31.514c6.668,2.254,6.668,2.254,6.668,2.254 M227.098,14.784
					c11.58,3.458,11.58,3.458,11.58,3.458 M231.578,21.872c-1.336,5.393-1.336,5.393-1.336,5.393"/>
				<path id="_116900536" fill="none" stroke="#1F1A17" d="M223.666,54.583l-49.217-9.046
					C223.666,54.583,223.666,54.583,223.666,54.583z"/>
				<line id="_116900584" fill="none" stroke="#1F1A17" x1="190.688" y1="8.562" x2="189.826" y2="14.168"/>
				<line id="_116900632" fill="none" stroke="#1F1A17" x1="187.903" y1="19.411" x2="187.043" y2="25.018"/>
				<line id="_116900680" fill="none" stroke="#1F1A17" x1="185.117" y1="30.262" x2="184.258" y2="35.868"/>
				<line id="_116900728" fill="none" stroke="#1F1A17" x1="182.332" y1="41.111" x2="181.475" y2="46.718"/>
				<line id="_116900776" fill="none" stroke="#1F1A17" x1="218.156" y1="47.146" x2="217.014" y2="53.36"/>
				<line id="_116900824" fill="none" stroke="#1F1A17" x1="218.188" y1="35.826" x2="217.225" y2="41.508"/>
				<line id="_116900872" fill="none" stroke="#1F1A17" x1="219.139" y1="24.665" x2="218.174" y2="30.346"/>
				<line id="_116900920" fill="none" stroke="#1F1A17" x1="220.088" y1="13.503" x2="219.123" y2="19.185"/>
				<line id="_116900968" fill="none" stroke="#1F1A17" x1="221.039" y1="2.342" x2="220.076" y2="8.022"/>
				<line id="_116901016" fill="none" stroke="#1F1A17" x1="193.526" y1="-2.327" x2="192.563" y2="3.354"/>
				<line id="_116901064" fill="none" stroke="#1F1A17" x1="185.502" y1="2.065" x2="227.553" y2="9.201"/>
				<line id="_116901112" fill="none" stroke="#1F1A17" x1="188.256" y1="-8.791" x2="228.533" y2="-1.957"/>
				<path id="_116901160" fill="none" stroke="#1F1A17" d="M206.528,5.633l0.934-5.503C206.528,5.633,206.528,5.633,206.528,5.633z"
					/>
				<path id="_116901208" fill="none" stroke="#1F1A17" d="M204.969,14.817l0.625-3.681
					C204.969,14.817,204.969,14.817,204.969,14.817z"/>
				<line id="_116901256" fill="none" stroke="#1F1A17" x1="182.746" y1="12.92" x2="198.844" y2="15.651"/>
				<line id="_116901304" fill="none" stroke="#1F1A17" x1="181.367" y1="18.347" x2="193.803" y2="20.458"/>
				<line id="_116901352" fill="none" stroke="#1F1A17" x1="179.99" y1="23.776" x2="192.379" y2="25.877"/>
				<line id="_116901400" fill="none" stroke="#1F1A17" x1="178.612" y1="29.203" x2="191.446" y2="31.38"/>
				<line id="_116901448" fill="none" stroke="#1F1A17" x1="177.235" y1="34.631" x2="190.514" y2="36.883"/>
				<line id="_116894680" fill="none" stroke="#1F1A17" x1="175.856" y1="40.059" x2="189.582" y2="42.387"/>
				<line id="_116894728" fill="none" stroke="#1F1A17" x1="184.123" y1="7.493" x2="227.098" y2="14.784"/>
				<line id="_116894776" fill="none" stroke="#1F1A17" x1="189.678" y1="-14.394" x2="229.039" y2="-7.715"/>
				<line id="_116894824" fill="none" stroke="#1F1A17" x1="196.323" y1="-13.266" x2="195.36" y2="-7.584"/>
				<line id="_116894872" fill="none" stroke="#1F1A17" x1="222.395" y1="-8.841" x2="221.428" y2="-3.16"/>
				<polygon id="_116894920" fill="none" stroke="#1F1A17" points="174.449,45.604 223.666,54.583 229.039,-7.715 232.682,-11.783 
					234.158,-20.478 227.471,-21.663 226.356,-15.08 219.934,-16.169 221.051,-22.753 214.826,-23.81 213.709,-17.226 
					207.287,-18.316 208.405,-24.899 201.791,-26.021 200.674,-19.437 194.252,-20.527 195.369,-27.111 189.266,-28.147 
					187.614,-19.43 189.678,-14.394 				"/>
				<line id="_116894968" fill="none" stroke="#1F1A17" x1="209.36" y1="-11.054" x2="208.395" y2="-5.374"/>
				<line id="_116895016" fill="none" stroke="#1F1A17" x1="201.516" y1="-6.54" x2="200.582" y2="-1.037"/>
				<line id="_116895064" fill="none" stroke="#1F1A17" x1="215.274" y1="-4.207" x2="214.34" y2="1.297"/>
				<line id="_116895112" fill="none" stroke="#1F1A17" x1="186.879" y1="-3.362" x2="228.043" y2="3.622"/>
				<line id="_116895160" fill="none" stroke="#1F1A17" x1="210.596" y1="45.953" x2="224.127" y2="48.249"/>
				<line id="_116895208" fill="none" stroke="#1F1A17" x1="211.531" y1="40.45" x2="224.617" y2="42.67"/>
				<line id="_116895256" fill="none" stroke="#1F1A17" x1="212.465" y1="34.947" x2="225.106" y2="37.093"/>
				<line id="_116895304" fill="none" stroke="#1F1A17" x1="213.399" y1="29.443" x2="225.596" y2="31.514"/>
				<line id="_116895352" fill="none" stroke="#1F1A17" x1="213.838" y1="23.857" x2="226.086" y2="25.936"/>
				<line id="_116895400" fill="none" stroke="#1F1A17" x1="210.668" y1="17.658" x2="226.668" y2="20.372"/>
				<line id="_116895448" fill="none" stroke="#1F1A17" x1="214.588" y1="7.001" x2="213.653" y2="12.503"/>
				<line id="_116895496" fill="none" stroke="#1F1A17" x1="198.996" y1="4.355" x2="198.061" y2="9.857"/>
				<path id="_116895568" fill="#1F1A17" stroke="#1F1A17" d="M196.563,24.387c0.625-3.693,4.129-6.181,7.822-5.553
					c3.693,0.625,6.18,4.13,5.555,7.822l-4.207,24.632l-13.344-2.451L196.563,24.387L196.563,24.387z"/>
				<path id="_116895616" fill="none" stroke="#1F1A17" d="M192.772,23.56c0.984-5.803,6.49-9.711,12.293-8.727
					c5.803,0.985,9.711,6.491,8.727,12.294 M192.772,23.56l-4.244,24.566 M213.791,27.127l-4.303,24.852"/>
				<line id="_116895664" fill="none" stroke="#1F1A17" x1="223.666" y1="54.583" x2="246.412" y2="62.136"/>
				<path id="_116895712" fill="none" stroke="#1F1A17" d="M192.772,23.56c0.984-5.803,6.49-9.711,12.293-8.727
					c5.803,0.985,9.711,6.491,8.727,12.294 M192.772,23.56l-4.244,24.566 M213.791,27.127l-4.303,24.852"/>
				<path id="_116895784" fill="none" stroke="#1F1A17" d="M244.944,35.38c1.803-5.604,7.809-8.687,13.412-6.885 M244.944,35.38
					l-7.703,23.708"/>
				<path id="_116895832" fill="#1F1A17" stroke="#1F1A17" d="M257.055,32.339c-3.549-1.109-7.336,0.852-8.475,4.398l-7.617,23.606
					l6.428,2.164L257.055,32.339L257.055,32.339z"/>
			</g>
			<rect id="_116895928" x="149.599" y="76.743" fill="#DA251D" stroke="#1F1A17" width="91.159" height="89.928"/>
			<path id="_116896000" fill="#FFFFFF" stroke="#1F1A17" d="M193.883,149.063c-0.91,0.564-3.787,3.29-4.828,1.639
				c-0.701-1.105,1.492-2.254,2.143-2.742c1.916-1.384,4.506-2.66,6.158-4.271c2.334-2.278-1.35-4.505-3.018-5.76
				c-2.186-2.005-6.254-4.199-7.426-7.024c-2.184-5.261,1.457-8.429,6.027-9.41l0.074,2.629c0.014,0.532-3.219,0.623-3.826,2.887
				c-0.533,1.994,0.217,2.688,1.238,4.236l7.455,6.171c1.877,1.685,4.775,3.99,2.742,6.856
				C199.256,146.204,195.824,147.773,193.883,149.063L193.883,149.063z"/>
			<path id="_116896048" fill="#FFFFFF" stroke="#1F1A17" d="M193.244,125.664l0.664,23.345h2.541l1.334-46.689
				c0.914-0.708,1.766-2.023,1.76-3.551c-0.008-2.405-1.953-4.36-4.359-4.36c-2.408,0-4.369,1.954-4.361,4.36
				c0.008,1.467,0.895,2.841,1.758,3.551L193.244,125.664 M184.924,105.081h-14.238c-0.939,0-1.705,0.867-1.75,1.938
				c-0.043,1.071,0.652,1.938,1.516,1.938h9.271h-6.051c-0.939,0-1.705,0.869-1.748,1.938c-0.043,1.071,0.65,1.938,1.514,1.938h9.27
				h-6.049c-0.939,0-1.705,0.869-1.75,1.939c-0.043,1.069,0.652,1.938,1.516,1.938h9.27h-6.049c-0.707,0-1.703,0.867-1.748,1.938
				c-0.043,1.069,0.652,1.938,1.514,1.938h13.682l0,0h0.008l-0.244-8.245C190.211,109.92,188.508,105.081,184.924,105.081
				L184.924,105.081z M205.432,105.081h14.238c0.939,0,1.707,0.867,1.75,1.938s-0.652,1.938-1.516,1.938h-9.27h6.049
				c0.938,0,1.705,0.869,1.748,1.938c0.045,1.071-0.648,1.938-1.514,1.938h-9.27h6.049c0.939,0,1.705,0.869,1.75,1.939
				c0.045,1.069-0.652,1.938-1.514,1.938h-9.27h6.047c0.709,0,1.703,0.867,1.748,1.938c0.045,1.069-0.65,1.938-1.514,1.938h-13.682
				l0,0h-0.008l0.244-8.245C200.145,109.92,201.848,105.081,205.432,105.081L205.432,105.081z"/>
			<path id="_116896120" fill="#FFFFFF" stroke="#1F1A17" d="M196.291,149.063c0.912,0.564,3.791,3.29,4.832,1.639
				c0.699-1.105-1.494-2.254-2.143-2.742c-1.918-1.384-4.508-2.66-6.158-4.271c-2.334-2.278,1.348-4.505,3.018-5.76
				c2.184-2.005,6.252-4.199,7.426-7.024c2.184-5.261-1.457-8.429-6.027-9.41l-0.074,2.629c-0.014,0.532,3.219,0.623,3.826,2.887
				c0.533,1.994-0.217,2.688-1.238,4.236l-7.457,6.171c-1.879,1.685-4.775,3.99-2.742,6.856
				C190.92,146.204,194.354,147.773,196.291,149.063L196.291,149.063z"/>
			<g>
				<path id="_116896192" fill="#013E99" stroke="#1F1A17" d="M203.684,318.566c1.912,1.483,4.234,2.352,6.734,2.352
					c11.463,0,15.469-16.879,9.398-24.58c-5.164-6.543-12.016-6.921-19.082-3.789c-32.588,14.446-65.22,14.565-97.927,0.07
					c-7.066-3.131-14.046-2.824-19.21,3.719c-6.07,7.701-2.064,24.58,9.399,24.58c1.774,0,3.137-0.251,4.699-1.086
					c4.01-2.144,7.178-6.943,7.178-12.27c0-7.006-9.969-9.283-13.53-3.925c3.561-5.358,13.53-3.081,13.53,3.925
					c0,5.326-3.168,10.126-7.178,12.27c16.485,6.945,34.792,10.106,53.083,9.8c18.292-0.305,36.479-4.146,52.903-11.065H203.684z
					 M104.874,307.563c0-7.006-9.969-9.283-13.53-3.927C94.905,298.279,104.874,300.557,104.874,307.563
					c0,5.326-3.168,10.126-7.178,12.27C101.706,317.688,104.874,312.889,104.874,307.563z"/>
				<path id="_116896264" fill="none" stroke="#1F1A17" d="M212.071,303.636c-3.561-5.356-13.529-3.08-13.529,3.926
					c0,4.563,2.035,8.596,5.143,11.005"/>
				<path id="_116896336" fill="none" stroke="#1F1A17" d="M91.344,303.636c3.562-5.356,13.53-3.08,13.53,3.926
					c0,5.327-3.168,10.127-7.178,12.271"/>
				<path id="_116896408" fill="#FFFFFF" d="M109.502,317.482l-1.601-14.794l1.92,0.515l0.875,10.669
					c0.072,0.856,0.109,1.652,0.116,2.383c0.404-0.675,0.84-1.34,1.311-2l6.228-8.766l1.808,0.484l-8.838,11.994L109.502,317.482
					L109.502,317.482z M186.432,318.784l1.557-14.779l1.91-0.512l9.076,11.93l-2.021,0.544l-2.652-3.643l-5.604,1.502l-0.383,4.453
					L186.432,318.784z M182.084,319.99l-2.408-13.663l1.809-0.319l2.408,13.664L182.084,319.99z M167.215,322.066l-1.209-13.822
					l6.127-0.535c1.232-0.108,2.18-0.065,2.842,0.128c0.662,0.192,1.213,0.585,1.654,1.178c0.438,0.598,0.688,1.275,0.754,2.036
					c0.086,0.981-0.156,1.832-0.736,2.561c-0.574,0.729-1.52,1.241-2.828,1.541c0.506,0.188,0.893,0.386,1.164,0.593
					c0.576,0.443,1.137,1.013,1.68,1.704l2.732,3.552l-2.301,0.202l-2.08-2.718c-0.607-0.78-1.102-1.379-1.488-1.786
					c-0.383-0.411-0.719-0.693-1.008-0.842c-0.289-0.154-0.576-0.252-0.865-0.299c-0.213-0.023-0.553-0.017-1.025,0.026
					l-2.121,0.186l0.537,6.136L167.215,322.066L167.215,322.066z M150.924,316.021c0-2.303,0.617-4.107,1.855-5.407
					c1.236-1.302,2.832-1.955,4.789-1.955c1.279,0,2.436,0.307,3.463,0.919s1.813,1.467,2.35,2.56
					c0.539,1.093,0.809,2.336,0.809,3.723c0,1.407-0.279,2.666-0.85,3.776c-0.568,1.11-1.373,1.95-2.412,2.521
					c-1.043,0.572-2.162,0.856-3.369,0.856c-1.309,0-2.475-0.314-3.502-0.947c-1.031-0.629-1.809-1.493-2.338-2.584
					C151.19,318.394,150.924,317.238,150.924,316.021z M143.176,322.777v-12.236h-4.57v-1.638h10.995v1.638h-4.591v12.236H143.176
					L143.176,322.777z M135.348,317.28l1.792,0.623c-0.514,1.467-1.306,2.551-2.371,3.256c-1.066,0.702-2.317,0.987-3.757,0.861
					c-1.492-0.131-2.675-0.539-3.553-1.227c-0.883-0.689-1.516-1.632-1.901-2.821c-0.386-1.193-0.521-2.452-0.406-3.771
					c0.126-1.439,0.509-2.669,1.153-3.693c0.644-1.022,1.497-1.769,2.563-2.238c1.061-0.466,2.203-0.646,3.423-0.539
					c1.383,0.122,2.513,0.575,3.395,1.36c0.882,0.788,1.45,1.832,1.711,3.144l-1.836,0.268c-0.234-1.037-0.634-1.809-1.205-2.32
					c-0.567-0.515-1.315-0.809-2.241-0.891c-1.063-0.092-1.969,0.084-2.728,0.53c-0.761,0.449-1.322,1.088-1.682,1.922
					c-0.365,0.83-0.587,1.702-0.667,2.612c-0.103,1.179-0.022,2.217,0.241,3.126c0.269,0.904,0.742,1.607,1.428,2.105
					s1.449,0.782,2.292,0.854c1.024,0.091,1.916-0.13,2.677-0.658C134.439,319.255,134.995,318.418,135.348,317.28z
					 M119.386,319.672l2.41-13.664l1.808,0.319l-2.41,13.663L119.386,319.672z M188.821,312.244l4.547-1.217l-2.395-3.333
					c-0.727-1.015-1.291-1.856-1.693-2.528c0.061,0.908,0.049,1.822-0.037,2.756L188.821,312.244L188.821,312.244z M168.365,314.186
					l3.936-0.345c0.832-0.071,1.48-0.215,1.936-0.431c0.457-0.215,0.789-0.522,1.002-0.924c0.211-0.401,0.297-0.823,0.258-1.272
					c-0.057-0.651-0.338-1.169-0.852-1.548c-0.51-0.381-1.279-0.524-2.305-0.434l-4.373,0.381l0.4,4.572H168.365z M152.817,316.049
					c0,1.673,0.449,2.988,1.348,3.95c0.9,0.963,2.027,1.443,3.385,1.443c1.383,0,2.52-0.483,3.412-1.455
					c0.891-0.974,1.34-2.352,1.34-4.139c0-1.127-0.193-2.113-0.574-2.955c-0.383-0.843-0.941-1.496-1.674-1.961
					c-0.736-0.462-1.559-0.694-2.473-0.694c-1.303,0-2.422,0.444-3.359,1.342C153.285,312.47,152.817,313.963,152.817,316.049z"/>
			</g>
			<polygon id="_116896504" fill="#FFF500" stroke="#1F1A17" points="105.7,99.318 115.846,115.644 135.329,119.096 
				121.565,133.005 124.013,151.097 105.359,143.366 87.387,151.097 89.624,132.41 76.07,119.096 96.106,115.277 			"/>
			<path id="_116897824" fill="#FFFFFF" stroke="#1F1A17" d="M115.76,58.299c-18.941,2.955-40.099,8.028-58.471,13.97
				c-0.791,0.255-2.449,0.592-2.916,1.803c-0.771,2.003-0.078,3.897,2.125,4.443c0.761,0.188,2.397-0.323,3.134-0.579
				c18.814-6.546,36.369-10.035,56.127-13.114c22.267-3.47,45.412-3.469,67.68,0c19.758,3.079,37.313,6.567,56.127,13.114
				c0.736,0.256,2.375,0.767,3.135,0.579c2.201-0.546,2.896-2.44,2.123-4.443c-0.467-1.211-2.123-1.548-2.914-1.803
				c-18.373-5.942-39.531-11.016-58.471-13.97c-22.266-3.47-45.415-3.47-67.678,0H115.76z M59.199,71.58
				c-0.075,0.006-0.153,0.01-0.229,0.01c-1.523,0-2.759-1.161-2.759-2.59c0-0.952,0.556-1.828,1.448-2.279 M149.6,45.319
				c-11.496,0-27.157,0.851-38.054,2.549c-18.941,2.954-40.098,8.028-58.471,13.97c-0.792,0.256-2.449,0.593-2.916,1.803
				c-0.772,2.003-0.078,3.897,2.124,4.444c0.761,0.189,2.399-0.323,3.136-0.579c18.814-6.546,36.37-10.035,56.127-13.113
				c12.538-1.953,25.376-2.547,38.056-2.547c12.766,0,25.424,0.58,38.051,2.547c19.76,3.077,37.314,6.567,56.129,13.113
				c0.738,0.256,2.373,0.769,3.135,0.579c2.201-0.547,2.896-2.44,2.123-4.444c-0.465-1.21-2.123-1.547-2.914-1.803
				c-18.373-5.942-39.531-11.016-58.473-13.97C176.758,46.169,161.096,45.319,149.6,45.319 M239.998,71.58
				c0.078,0.006,0.154,0.01,0.23,0.01c1.523,0,2.76-1.161,2.76-2.59c0-0.952-0.557-1.828-1.447-2.279"/>
		</g>
		<path id="_116904616_1_" fill="none" stroke="#1F1A17" d="M58.44,166.671h182.322v47.735c0,40.976-40.824,74.204-91.161,74.204
			c-50.337,0-91.161-33.229-91.161-74.204V166.671L58.44,166.671z"/>
	</g>
</g>
</svg>
